<svg width="200" height="205" viewBox="0 0 200 205" fill="none" xmlns="http://www.w3.org/2000/svg">
<path d="M112.087 30.0434L113.238 27.2588L110.547 25.3629C110.698 24.6701 110.791 23.975 110.824 23.2822L113.907 22.144L113.512 19.1568L110.234 18.8602C110.02 18.1932 109.751 17.5462 109.43 16.924L111.536 14.3934L109.7 12.0039L106.717 13.3839C106.204 12.9172 105.646 12.4919 105.049 12.1102L105.606 8.86672L102.821 7.71617L100.925 10.4068C100.233 10.2557 99.5375 10.1628 98.8447 10.1303L97.7065 7.04688L94.7193 7.44196L94.4227 10.7201C93.7557 10.9339 93.1087 11.2025 92.4865 11.5237L89.9559 9.41961L87.5664 11.2551L88.9464 14.2378C88.4797 14.7516 88.0544 15.3089 87.6727 15.9066L84.4292 15.3492L83.2787 18.1338L85.9693 20.0298C85.8182 20.7226 85.7253 21.4176 85.6928 22.1104L82.6094 23.2487L83.0045 26.2358L86.2826 26.5324C86.4964 27.1995 86.765 27.8464 87.0862 28.4687L84.9821 30.9992L86.8176 33.3888L89.8003 32.0088C90.3141 32.4755 90.8714 32.9008 91.4691 33.2824L90.9117 36.5259L93.6963 37.6765L95.5923 34.9859C96.2851 35.137 96.9801 35.2299 97.6729 35.2623L98.8112 38.3458L101.798 37.9507L102.095 34.6725C102.762 34.4587 103.409 34.1901 104.031 33.8689L106.562 35.9741L108.951 34.1386L107.571 31.1559C108.038 30.6422 108.463 30.0848 108.845 29.4872L112.088 30.0445L112.087 30.0434ZM95.2946 29.8643C91.3359 28.2281 89.4534 23.6919 91.0897 19.7332C92.726 15.7745 97.2622 13.892 101.221 15.5283C105.179 17.1646 107.062 21.7008 105.426 25.6594C103.789 29.6181 99.2532 31.5006 95.2946 29.8643Z" fill="white"/>
<path d="M98.8091 38.5983C98.705 38.5983 98.611 38.5345 98.5741 38.4349L97.4929 35.5059C96.8986 35.4701 96.2965 35.3906 95.6988 35.2675L93.898 37.8227C93.8308 37.9178 93.7066 37.9548 93.598 37.91L90.8134 36.7594C90.7048 36.7147 90.6422 36.6016 90.6623 36.4864L91.1917 33.4052C90.6813 33.0694 90.199 32.7012 89.7535 32.3072L86.9197 33.6178C86.8133 33.667 86.688 33.6357 86.6163 33.5428L84.7808 31.1533C84.7092 31.0604 84.7126 30.9306 84.7864 30.841L86.7853 28.437C86.5167 27.8986 86.2839 27.339 86.0926 26.7682L82.9778 26.4862C82.8614 26.4761 82.7674 26.3854 82.7528 26.2701L82.3577 23.283C82.3421 23.1666 82.4092 23.0558 82.5189 23.0155L85.4479 21.9343C85.4837 21.34 85.5632 20.739 85.6863 20.1402L83.1311 18.3394C83.036 18.2722 82.999 18.1469 83.0438 18.0394L84.1944 15.2548C84.2391 15.1463 84.3522 15.0836 84.4686 15.1037L87.5498 15.6331C87.8855 15.1239 88.2538 14.6404 88.6477 14.1949L87.3371 11.3611C87.2879 11.2547 87.3192 11.1294 87.4121 11.0578L89.8016 9.22224C89.8945 9.15061 90.0244 9.15397 90.1139 9.22783L92.518 11.2268C93.0563 10.9581 93.6159 10.7253 94.1867 10.534L94.4688 7.41918C94.4788 7.30278 94.5695 7.20877 94.6848 7.19422L97.672 6.79913C97.7884 6.78346 97.8992 6.85062 97.9395 6.9603L99.0206 9.88929C99.6149 9.92511 100.217 10.0057 100.815 10.1277L102.616 7.57251C102.683 7.47738 102.808 7.44044 102.915 7.48521L105.7 8.63577C105.809 8.68054 105.871 8.79358 105.851 8.90886L105.322 11.9901C105.831 12.3247 106.313 12.6929 106.76 13.088L109.594 11.7774C109.699 11.7282 109.826 11.7595 109.897 11.8524L111.733 14.2419C111.804 14.3348 111.801 14.4646 111.727 14.5542L109.728 16.9583C109.997 17.4966 110.23 18.0562 110.421 18.627L113.536 18.9091C113.652 18.9191 113.746 19.0098 113.761 19.1251L114.156 22.1123C114.171 22.2287 114.104 22.3395 113.995 22.3798L111.066 23.4609C111.03 24.0552 110.95 24.6562 110.827 25.255L113.382 27.0558C113.478 27.123 113.514 27.2483 113.47 27.3558L112.319 30.1404C112.274 30.2478 112.161 30.3116 112.046 30.2915L108.965 29.7621C108.629 30.2725 108.261 30.7549 107.867 31.2003L109.178 34.0342C109.227 34.1405 109.195 34.2658 109.103 34.3375L106.713 36.173C106.62 36.2446 106.49 36.2412 106.401 36.1674L103.997 34.1685C103.458 34.4371 102.899 34.6699 102.328 34.8613L102.046 37.976C102.036 38.0924 101.945 38.1864 101.83 38.201L98.8427 38.5961C98.8315 38.5972 98.8203 38.5983 98.8102 38.5983H98.8091ZM95.5902 34.7381C95.6081 34.7381 95.626 34.7404 95.6439 34.7437C96.3233 34.8915 97.0094 34.9832 97.6832 35.0146C97.7839 35.0191 97.8712 35.084 97.9059 35.178L98.9747 38.0745L101.565 37.732L101.843 34.6531C101.852 34.5535 101.921 34.4684 102.016 34.4371C102.667 34.2278 103.306 33.9636 103.914 33.6491C104.003 33.6033 104.112 33.6144 104.189 33.6794L106.566 35.6559L108.638 34.0633L107.342 31.2619C107.299 31.1701 107.316 31.0626 107.383 30.9888C107.837 30.4896 108.256 29.9401 108.631 29.3536C108.685 29.2685 108.785 29.2249 108.884 29.2417L111.931 29.7655L112.929 27.3502L110.403 25.5695C110.321 25.5113 110.281 25.4095 110.302 25.3121C110.45 24.6327 110.542 23.9467 110.573 23.2729C110.578 23.1722 110.643 23.0849 110.737 23.0502L113.632 21.9813L113.29 19.3914L110.211 19.1128C110.11 19.1038 110.026 19.0355 109.995 18.9404C109.785 18.2879 109.52 17.6499 109.207 17.0422C109.161 16.9527 109.172 16.8452 109.237 16.768L111.213 14.3908L109.622 12.3191L106.82 13.6152C106.729 13.6577 106.622 13.6409 106.547 13.5738C106.048 13.1194 105.498 12.6996 104.912 12.3258C104.827 12.2721 104.783 12.1714 104.8 12.0729L105.324 9.02638L102.909 8.02803L101.128 10.5541C101.07 10.6358 100.968 10.6761 100.871 10.6548C100.192 10.5071 99.5064 10.4153 98.8315 10.384C98.7307 10.3795 98.6435 10.3146 98.6088 10.2206L97.5399 7.32517L94.95 7.66765L94.6713 10.7466C94.6624 10.8462 94.5941 10.9313 94.499 10.9626C93.8476 11.1719 93.2085 11.4372 92.6008 11.7505C92.5113 11.7964 92.4038 11.7852 92.3266 11.7203L89.9494 9.74379L87.8777 11.3364L89.1738 14.1378C89.2163 14.2296 89.1995 14.3371 89.1323 14.4109C88.6791 14.9101 88.2582 15.4608 87.8844 16.0461C87.8307 16.1312 87.7311 16.1748 87.6315 16.158L84.585 15.6342L83.5866 18.0484L86.1127 19.8291C86.1944 19.8873 86.2347 19.9891 86.2134 20.0865C86.0646 20.7658 85.9739 21.4519 85.9426 22.1257C85.9381 22.2264 85.8732 22.3137 85.7792 22.3484L82.8826 23.4173L83.2251 26.0071L86.3041 26.2858C86.4037 26.2948 86.4888 26.363 86.5201 26.4582C86.7294 27.1096 86.9935 27.7475 87.308 28.3564C87.3539 28.4459 87.3427 28.5534 87.2778 28.6306L85.3013 31.0078L86.8928 33.0795L89.6942 31.7834C89.7848 31.7409 89.8934 31.7577 89.9673 31.8248C90.4665 32.2781 91.016 32.6978 91.6025 33.0727C91.6875 33.1265 91.7312 33.2272 91.7144 33.3257L91.1917 36.3722L93.607 37.3705L95.3876 34.8445C95.4347 34.7773 95.5119 34.7381 95.5925 34.7381H95.5902ZM98.2461 30.7045C97.2288 30.7045 96.1957 30.5097 95.1985 30.0967C93.222 29.2797 91.6819 27.7419 90.8627 25.7665C90.0423 23.7911 90.0412 21.6153 90.8582 19.6388C91.6752 17.6623 93.213 16.1222 95.1884 15.3029C97.1638 14.4826 99.3396 14.4814 101.316 15.2985C103.293 16.1155 104.833 17.6533 105.652 19.6287C106.471 21.6041 106.473 23.7799 105.656 25.7564C104.383 28.8387 101.392 30.7045 98.2472 30.7045H98.2461ZM98.2562 15.1877C97.2814 15.1877 96.3065 15.3802 95.3787 15.7652C93.5264 16.5341 92.0848 17.9779 91.3193 19.8302C90.5538 21.6836 90.5549 23.7239 91.3238 25.5751C92.0927 27.4274 93.5365 28.869 95.3888 29.6345C99.2142 31.216 103.612 29.3905 105.193 25.565C105.959 23.7116 105.958 21.6724 105.189 19.8201C104.42 17.9678 102.976 16.5262 101.124 15.7607C100.199 15.3779 99.2277 15.1877 98.2562 15.1877Z" fill="#003080"/>
<path d="M169.952 44.5615L171.941 39.7499L167.292 36.474C167.553 35.2776 167.714 34.0755 167.769 32.878L173.097 30.9115L172.413 25.7497L166.748 25.2371C166.379 24.0854 165.914 22.9662 165.359 21.8906L168.997 17.5167L165.824 13.3879L160.668 15.773C159.781 14.9671 158.817 14.2318 157.785 13.5715L158.748 7.96643L153.936 5.97758L150.66 10.6257C149.464 10.3649 148.262 10.2049 147.064 10.1489L145.098 4.82031L139.936 5.50415L139.423 11.1696C138.272 11.539 137.153 12.0034 136.077 12.5586L131.703 8.92112L127.574 12.0941L129.959 17.2492C129.154 18.1368 128.418 19.1004 127.758 20.1323L122.153 19.1698L120.164 23.9813L124.813 27.2572C124.552 28.4537 124.391 29.6557 124.336 30.8533L119.008 32.8198L119.692 37.9816L125.357 38.4942C125.726 39.6459 126.191 40.7651 126.746 41.8406L123.109 46.2145L126.282 50.3433L131.437 47.9583C132.324 48.7641 133.288 49.4994 134.32 50.1598L133.357 55.7648L138.169 57.7537L141.445 53.1044C142.641 53.3652 143.843 53.5264 145.041 53.5812L147.007 58.9098L152.169 58.226L152.682 52.5605C153.833 52.1912 154.953 51.7267 156.028 51.1715L160.402 54.809L164.531 51.636L162.146 46.4809C162.952 45.5934 163.687 44.6297 164.347 43.5978L169.952 44.5603V44.5615ZM140.933 44.2526C134.091 41.4243 130.839 33.5864 133.666 26.7446C136.494 19.9029 144.332 16.6504 151.174 19.4776C158.016 22.3058 161.268 30.1437 158.441 36.9855C155.613 43.8272 147.775 47.0797 140.933 44.2526Z" fill="white"/>
<path d="M147.009 59.1612C146.906 59.1612 146.811 59.0975 146.774 58.9978L144.865 53.8237C143.769 53.7644 142.658 53.6166 141.555 53.3838L138.375 57.8976C138.308 57.9928 138.184 58.0297 138.076 57.9849L133.263 55.9961C133.154 55.9513 133.092 55.8383 133.112 55.723L134.046 50.2814C133.102 49.6669 132.211 48.9864 131.393 48.2556L126.388 50.5713C126.281 50.6205 126.155 50.5892 126.084 50.4963L122.911 46.3675C122.84 46.2746 122.843 46.1448 122.917 46.0552L126.448 41.8089C125.947 40.8184 125.517 39.7842 125.17 38.7299L119.669 38.2319C119.552 38.2218 119.458 38.1312 119.444 38.0159L118.76 32.8541C118.744 32.7377 118.812 32.6269 118.921 32.5866L124.095 30.6772C124.155 29.5815 124.302 28.4701 124.535 27.3677L120.021 24.1868C119.926 24.1197 119.889 23.9943 119.934 23.8869L121.923 19.0754C121.968 18.9668 122.08 18.9041 122.196 18.9243L127.638 19.8588C128.251 18.9153 128.932 18.0233 129.663 17.2052L127.348 12.2C127.299 12.0937 127.33 11.9684 127.423 11.8967L131.552 8.72375C131.644 8.65212 131.773 8.65547 131.864 8.72934L136.11 12.2605C137.101 11.7591 138.135 11.3304 139.189 10.9823L139.687 5.48137C139.697 5.36498 139.788 5.27096 139.903 5.25641L145.065 4.57257C145.18 4.5569 145.292 4.62405 145.333 4.73374L147.242 9.90788C148.339 9.96832 149.45 10.1149 150.551 10.3477L153.732 5.83393C153.799 5.7388 153.925 5.70186 154.032 5.74663L158.845 7.73548C158.953 7.78025 159.016 7.89329 158.996 8.00857L158.061 13.4502C159.005 14.0635 159.896 14.744 160.715 15.476L165.72 13.1603C165.826 13.1111 165.952 13.1424 166.023 13.2353L169.196 17.3641C169.268 17.457 169.265 17.5868 169.191 17.6764L165.66 21.9227C166.161 22.9121 166.591 23.9473 166.938 25.0016L172.439 25.4997C172.555 25.5098 172.649 25.6004 172.664 25.7157L173.348 30.8775C173.363 30.9939 173.296 31.1047 173.186 31.145L168.012 33.0544C167.953 34.1501 167.805 35.2615 167.572 36.3639L172.086 39.5447C172.181 39.6119 172.218 39.7372 172.174 39.8447L170.185 44.6562C170.14 44.7636 170.027 44.8274 169.912 44.8073L164.47 43.8727C163.857 44.8174 163.176 45.7083 162.444 46.5264L164.76 51.5315C164.809 51.6379 164.778 51.7632 164.685 51.8349L160.556 55.0078C160.463 55.0795 160.333 55.0761 160.244 55.0022L155.998 51.4711C155.007 51.9725 153.972 52.4023 152.919 52.7493L152.422 58.2502C152.412 58.3666 152.321 58.4606 152.206 58.4763L147.044 59.1601C147.033 59.1612 147.021 59.1624 147.011 59.1624L147.009 59.1612ZM141.447 52.8545C141.464 52.8545 141.482 52.8567 141.5 52.8601C142.684 53.1186 143.88 53.2775 145.055 53.3312C145.156 53.3357 145.243 53.4006 145.278 53.4947L147.175 58.6363L151.94 58.0051L152.435 52.5388C152.444 52.4392 152.512 52.3542 152.607 52.3228C153.742 51.9591 154.856 51.4968 155.916 50.9496C156.005 50.9037 156.114 50.9149 156.191 50.9798L160.411 54.4885L164.223 51.5595L161.922 46.5857C161.879 46.4939 161.896 46.3865 161.963 46.3126C162.754 45.4419 163.486 44.4827 164.139 43.4631C164.194 43.3781 164.292 43.3344 164.392 43.3512L169.8 44.2801L171.636 39.838L167.151 36.6773C167.069 36.6191 167.029 36.5173 167.05 36.4199C167.308 35.2369 167.466 34.0404 167.521 32.8652C167.525 32.7645 167.59 32.6772 167.684 32.6425L172.825 30.7455L172.194 25.9798L166.729 25.4851C166.628 25.4762 166.544 25.4079 166.513 25.3128C166.148 24.1768 165.685 23.0643 165.139 22.0044C165.093 21.9148 165.105 21.8074 165.17 21.7302L168.678 17.5107L165.749 13.6998L160.775 16.0009C160.684 16.0434 160.577 16.0266 160.502 15.9595C159.632 15.1682 158.672 14.4362 157.653 13.7837C157.568 13.73 157.524 13.6293 157.541 13.5308L158.47 8.12273L154.028 6.28609L150.867 10.7708C150.809 10.8525 150.707 10.8928 150.61 10.8715C149.427 10.613 148.231 10.4552 147.055 10.4003C146.954 10.3959 146.867 10.3309 146.832 10.2369L144.935 5.09525L140.17 5.72648L139.675 11.1927C139.666 11.2923 139.598 11.3774 139.503 11.4087C138.367 11.7736 137.253 12.2347 136.194 12.782C136.105 12.8279 135.997 12.8167 135.919 12.7518L131.699 9.24306L127.888 12.1721L130.19 17.1459C130.232 17.2376 130.215 17.3451 130.148 17.4189C129.357 18.2897 128.625 19.2489 127.972 20.2685C127.919 20.3535 127.819 20.3972 127.719 20.3804L122.311 19.4514L120.475 23.8936L124.959 27.0543C125.041 27.1125 125.081 27.2143 125.06 27.3117C124.802 28.4958 124.644 29.6911 124.589 30.8663C124.584 30.9671 124.52 31.0544 124.426 31.0891L119.285 32.9861L119.916 37.7518L125.381 38.2464C125.482 38.2554 125.566 38.3237 125.597 38.4188C125.961 39.5537 126.423 40.6662 126.971 41.7272C127.017 41.8167 127.005 41.9242 126.94 42.0014L123.432 46.2209L126.361 50.0318L131.334 47.7307C131.426 47.6882 131.533 47.7049 131.608 47.7721C132.477 48.5623 133.436 49.2942 134.457 49.9479C134.542 50.0016 134.586 50.1023 134.569 50.2008L133.64 55.6089L138.082 57.4455L141.243 52.9608C141.29 52.8936 141.367 52.8545 141.448 52.8545H141.447ZM146.038 45.5202C144.303 45.5202 142.54 45.1878 140.839 44.485C133.881 41.6086 130.56 33.6084 133.436 26.6502C136.313 19.6921 144.313 16.3714 151.271 19.2477C158.229 22.1241 161.55 30.1243 158.674 37.0825C156.5 42.3394 151.401 45.5202 146.038 45.5202ZM146.072 18.7128C140.905 18.7128 135.993 21.7772 133.899 26.8416C131.127 33.5446 134.327 41.2515 141.029 44.0227C147.732 46.7928 155.439 43.5952 158.21 36.8922C160.981 30.1892 157.782 22.4823 151.08 19.7111C149.441 19.034 147.743 18.7128 146.071 18.7128H146.072Z" fill="#003080"/>
<path d="M192.286 76.3437L193.692 73.3006L190.79 71.0733C190.989 70.31 191.124 69.5411 191.191 68.7733L194.67 67.6474L194.367 64.3099L190.738 63.8331C190.531 63.0832 190.261 62.3513 189.933 61.6451L192.388 58.9265L190.457 56.1889L187.079 57.589C186.53 57.0473 185.93 56.5493 185.283 56.0982L186.05 52.519L183.009 51.1143L180.779 54.0187C180.017 53.8195 179.248 53.6852 178.479 53.618L177.356 50.1406L174.018 50.4462L173.539 54.0758C172.789 54.284 172.056 54.5537 171.351 54.8816L168.635 52.4294L165.896 54.3623L167.294 57.739C166.752 58.2885 166.254 58.8895 165.802 59.5364L162.224 58.772L160.818 61.8152L163.72 64.0424C163.521 64.8057 163.386 65.5746 163.318 66.3424L159.84 67.4683L160.143 70.8058L163.772 71.2826C163.979 72.0325 164.248 72.7645 164.576 73.4707L162.122 76.1893L164.053 78.9269L167.43 77.5267C167.98 78.0684 168.58 78.5665 169.226 79.0175L168.459 82.5968L171.5 84.0003L173.728 81.0959C174.49 81.2951 175.259 81.4294 176.028 81.4966L177.152 84.974L180.488 84.6685L180.967 81.0388C181.718 80.8307 182.45 80.5609 183.155 80.233L185.872 82.6852L188.61 80.7523L187.213 77.3756C187.754 76.8261 188.252 76.2251 188.704 75.5782L192.283 76.3426L192.286 76.3437ZM173.635 75.3924C169.311 73.3957 167.426 68.2708 169.425 63.945C171.424 59.6193 176.55 57.73 180.873 59.7267C185.198 61.7234 187.083 66.8483 185.084 71.1741C183.085 75.4998 177.959 77.3891 173.635 75.3924Z" fill="#6692FD"/>
<path d="M94.6289 27.1024C94.7576 27.0375 99.568 23.043 99.568 23.043L100.827 24.649C100.827 24.649 101.569 28.4589 101.44 28.4589C101.312 28.4589 94.6289 27.1035 94.6289 27.1035V27.1024Z" fill="#FFC33F"/>
<path d="M175.969 201.245H42.3874C40.3527 201.245 38.7198 200.025 38.281 198.177L0.116852 38.1397C-0.261443 36.5437 0.307119 34.8884 1.4129 33.6483C2.47616 32.4552 5.56184 28.9297 5.56184 28.9297L139.309 31.646C141.344 31.646 142.977 32.866 143.416 34.7149L183.824 195.53C183.824 195.53 181.328 198.172 180.109 199.43C179.054 200.52 177.57 201.244 175.969 201.244V201.245Z" fill="#003080"/>
<path d="M179.969 196.48H46.3864C44.3517 196.48 42.7187 195.26 42.28 193.411L4.44488 33.8257C3.70284 30.6942 6.60721 27.332 10.0544 27.332H143.637C145.672 27.332 147.305 28.552 147.744 30.4009L185.579 189.987C186.321 193.118 183.417 196.48 179.969 196.48Z" fill="white"/>
<path d="M179.969 196.731H46.3857C44.2468 196.731 42.4986 195.42 42.0364 193.469L4.20127 33.8835C3.85096 32.4061 4.25611 30.7911 5.31377 29.4525C6.48783 27.9684 8.25955 27.082 10.0537 27.082H143.637C145.775 27.082 147.524 28.3926 147.986 30.3434L185.821 189.929C186.171 191.408 185.766 193.022 184.709 194.36C183.534 195.844 181.763 196.731 179.969 196.731ZM10.0548 27.5823C8.41177 27.5823 6.78666 28.3971 5.70662 29.7637C4.74409 30.9803 4.37363 32.4397 4.68813 33.7682L42.5233 193.353C42.9374 195.1 44.4539 196.229 46.3857 196.229H179.969C181.612 196.229 183.237 195.414 184.317 194.048C185.279 192.831 185.65 191.372 185.335 190.043L147.5 30.4587C147.086 28.7116 145.57 27.5823 143.637 27.5823H10.0548Z" fill="#003080"/>
<path d="M170.491 186.984H52.7921C50.8928 186.984 49.3416 185.82 48.9308 184.088L15.5939 43.4784C15.2827 42.1678 15.642 40.7352 16.5799 39.55C17.6196 38.2349 19.1899 37.4492 20.7803 37.4492H138.479C140.379 37.4492 141.93 38.6132 142.341 40.3458L175.677 180.956C175.988 182.267 175.628 183.699 174.691 184.885C173.651 186.2 172.081 186.986 170.49 186.986L170.491 186.984ZM20.7803 37.9495C19.3421 37.9495 17.9185 38.6636 16.9727 39.86C16.1311 40.9255 15.8054 42.2014 16.0807 43.3632L49.4177 183.973C49.7792 185.498 51.1044 186.484 52.7921 186.484H170.491C171.929 186.484 173.353 185.77 174.299 184.574C175.14 183.508 175.466 182.232 175.191 181.07L141.854 40.461C141.492 38.9355 140.167 37.9495 138.479 37.9495H20.7803Z" fill="#003080"/>
<path d="M65.852 186.959H52.7863C50.8869 186.959 49.3357 185.795 48.925 184.062L40.6551 149.183C40.6237 149.048 40.7065 148.913 40.8409 148.882C40.9729 148.85 41.1095 148.933 41.1419 149.067L49.4118 183.947C49.7733 185.472 51.0985 186.458 52.7863 186.458H65.852C65.9897 186.458 66.1027 186.57 66.1027 186.709C66.1027 186.848 65.9908 186.96 65.852 186.96V186.959Z" fill="#003080"/>
<path d="M134.481 56.9832L120.679 48.0978L107.677 56.9832C107.269 56.9832 106.941 56.7381 106.853 56.3676L99.2617 24.3457C99.1128 23.7179 99.6959 23.043 100.388 23.043H127.192C127.6 23.043 127.928 23.2881 128.015 23.6585L135.607 55.6804C135.756 56.3083 135.173 56.9832 134.481 56.9832Z" fill="#FFC33F"/>
<path d="M134.482 57.2335C134.433 57.2335 134.386 57.2201 134.346 57.1932L120.683 48.3984L107.819 57.1899C107.777 57.2178 107.728 57.2335 107.677 57.2335C107.154 57.2335 106.725 56.9089 106.61 56.4254L99.0181 24.4035C98.9342 24.0476 99.0293 23.6615 99.2789 23.3447C99.552 22.9989 99.9661 22.793 100.387 22.793H127.191C127.715 22.793 128.143 23.1175 128.259 23.601L135.85 55.623C135.935 55.9789 135.84 56.365 135.59 56.6817C135.317 57.0276 134.902 57.2335 134.482 57.2335ZM120.679 47.8478C120.726 47.8478 120.773 47.8612 120.815 47.888L134.551 56.7299C134.796 56.7086 135.035 56.5776 135.198 56.3706C135.352 56.1747 135.414 55.9442 135.365 55.7371L127.773 23.7152C127.711 23.4578 127.484 23.2921 127.192 23.2921H100.388C100.119 23.2921 99.8519 23.4276 99.6729 23.6536C99.5184 23.8495 99.4569 24.0801 99.5061 24.2871L107.098 56.309C107.154 56.5441 107.35 56.7041 107.606 56.7287L120.538 47.8903C120.581 47.8612 120.63 47.8466 120.679 47.8466V47.8478Z" fill="white"/>
<path d="M95.4886 147.947H66.8524C63.5025 147.947 60.2031 145.094 59.4957 141.588L53.5639 112.166C53.2192 110.456 53.5639 108.862 54.5331 107.677C55.4386 106.57 56.7928 105.961 58.3463 105.961H86.2864C89.5545 105.961 92.8294 108.697 93.5871 112.061L100.215 141.483C100.616 143.261 100.284 144.982 99.3074 146.205C98.4087 147.327 97.0533 147.946 95.4898 147.946L95.4886 147.947ZM58.3452 106.461C56.9451 106.461 55.7285 107.005 54.9193 107.993C54.0463 109.06 53.7396 110.506 54.0541 112.066L59.986 141.488C60.6485 144.773 63.7286 147.446 66.8512 147.446H95.4875C96.8966 147.446 98.1132 146.894 98.9146 145.892C99.7965 144.79 100.092 143.222 99.7249 141.592L93.0969 112.17C92.3873 109.022 89.3318 106.46 86.2842 106.46H58.3441L58.3452 106.461Z" fill="#003080"/>
<path d="M71.2317 139.156L66.4336 116.164H73.9536C76.4349 116.164 78.435 116.678 79.9537 117.707C81.4748 118.738 82.4585 120.276 82.9051 122.324C83.1334 123.371 83.0663 124.314 82.7025 125.154C82.3399 125.994 81.6818 126.646 80.7305 127.108C81.9963 127.445 83.0573 128.079 83.9124 129.012C84.7686 129.945 85.3405 131.068 85.6259 132.379C86.0994 134.553 85.796 136.226 84.7126 137.397C83.6281 138.57 81.8374 139.156 79.3415 139.156H71.2294H71.2317ZM72.2726 125.768H76.0309C77.2228 125.768 78.0947 125.487 78.6465 124.925C79.1971 124.365 79.3617 123.57 79.1412 122.544C78.8983 121.414 78.4126 120.6 77.6851 120.098C76.9587 119.598 75.9413 119.347 74.6319 119.347H70.9172L72.2714 125.767L72.2726 125.768ZM72.8915 128.704L74.4158 135.929H78.7002C79.9101 135.929 80.7875 135.616 81.3337 134.989C81.8788 134.363 82.0321 133.493 81.7915 132.38C81.2733 129.981 79.8351 128.757 77.4758 128.704H72.8904H72.8915Z" fill="#003080"/>
<path d="M143.167 147.946H114.53C111.184 147.946 107.808 145.097 107.004 141.593L100.25 112.171C99.8563 110.455 100.16 108.854 101.105 107.668C101.982 106.568 103.317 105.961 104.866 105.961H132.806C136.071 105.961 139.419 108.694 140.27 112.055L147.72 141.477C148.172 143.263 147.884 144.991 146.931 146.216C146.062 147.332 144.725 147.947 143.167 147.947V147.946ZM104.865 106.46C103.472 106.46 102.276 107 101.496 107.978C100.648 109.043 100.378 110.493 100.737 112.058L107.49 141.48C108.246 144.769 111.403 147.445 114.529 147.445H143.165C144.567 147.445 145.763 146.899 146.534 145.907C147.393 144.804 147.647 143.234 147.233 141.598L139.783 112.176C138.985 109.024 135.855 106.46 132.804 106.46H104.864H104.865Z" fill="#003080"/>
<path d="M133.782 131.602C134.167 134.07 133.769 136.001 132.585 137.39C131.397 138.781 129.536 139.477 126.999 139.477C125.226 139.477 123.559 139.037 122 138.156C120.442 137.278 119.106 136.03 117.991 134.415C116.879 132.803 116.057 130.936 115.526 128.814L115.019 126.667C114.507 124.503 114.426 122.602 114.773 120.96C115.12 119.321 115.875 118.061 117.037 117.177C118.197 116.294 119.676 115.852 121.474 115.852C123.895 115.852 126.009 116.529 127.819 117.886C129.632 119.245 130.967 121.173 131.826 123.674H128.012C127.428 122.031 126.679 120.847 125.761 120.121C124.844 119.396 123.672 119.035 122.243 119.035C120.582 119.035 119.457 119.664 118.868 120.922C118.277 122.182 118.262 124.035 118.826 126.483L119.312 128.522C119.906 131.015 120.789 132.922 121.962 134.238C123.136 135.556 124.553 136.216 126.21 136.216C127.725 136.216 128.777 135.86 129.366 135.148C129.955 134.437 130.148 133.254 129.948 131.602H133.781H133.782Z" fill="#003080"/>
<path d="M108.651 101.135H80.7992C77.54 101.135 74.3055 98.4334 73.5892 95.1116L67.579 67.2621C67.2343 65.6639 67.5421 64.1663 68.4475 63.046C69.3216 61.9637 70.6501 61.3672 72.1902 61.3672H99.3827C102.565 61.3672 105.775 63.9615 106.539 67.1513L113.207 95.0008C113.61 96.6852 113.324 98.2588 112.398 99.4317C111.532 100.53 110.201 101.135 108.651 101.135ZM72.1913 61.8675C70.8057 61.8675 69.6149 62.398 68.8381 63.3605C68.0301 64.3622 67.757 65.7097 68.0692 67.1569L74.0794 95.0064C74.7487 98.11 77.7639 100.635 80.8003 100.635H108.652C110.045 100.635 111.236 100.098 112.006 99.1217C112.835 98.0719 113.089 96.6494 112.722 95.1172L106.053 67.2677C105.34 64.2895 102.349 61.8675 99.3838 61.8675H72.1913Z" fill="#003080"/>
<path d="M95.9229 87.6868H87.5679L86.9669 92.805H83.0586L86.2998 71.043H89.6284L102.793 92.805H98.8698L95.9229 87.6868ZM87.9272 84.6213H94.1668L88.996 75.6127L87.9261 84.6213H87.9272Z" fill="#003080"/>
<path d="M90.3031 180.331C88.3859 176.386 88.2035 172.409 90.3031 168.393L88.7955 166.586L47.5781 167.941L48.9984 181.035L88.8963 181.495L90.302 180.331H90.3031Z" fill="white"/>
<path d="M88.8974 181.745H88.894L48.9962 181.285C48.8697 181.284 48.7645 181.188 48.75 181.063L47.3297 167.969C47.3218 167.9 47.3442 167.83 47.389 167.778C47.4349 167.725 47.4998 167.694 47.5703 167.691L88.7877 166.336C88.8638 166.335 88.9388 166.366 88.988 166.425L90.4956 168.233C90.5605 168.31 90.5717 168.42 90.5247 168.509C88.5415 172.304 88.5426 176.135 90.5281 180.221C90.5784 180.325 90.5516 180.449 90.4632 180.523L89.0574 181.687C89.0127 181.724 88.9567 181.744 88.8974 181.744V181.745ZM49.2245 180.787L88.809 181.244L89.9942 180.262C88.0736 176.196 88.077 172.216 90.0054 168.426L88.6825 166.84L47.8568 168.183L49.2245 180.787Z" fill="#003080"/>
<path d="M14.5627 165.145H91.0645C91.9587 165.145 92.684 165.87 92.684 166.764C92.684 167.658 91.9587 168.384 91.0645 168.384H55.8942C53.3189 168.384 51.2304 170.471 51.2304 173.046V175.667C51.2304 178.243 53.3178 180.33 55.8942 180.33H91.0656C91.9599 180.33 92.6851 181.055 92.6851 181.95C92.6851 182.844 91.9599 183.569 91.0656 183.569H14.5627C9.81383 183.569 5.96484 179.719 5.96484 174.971V173.743C5.96484 168.995 9.81495 165.146 14.5627 165.146V165.145Z" fill="white"/>
<path d="M91.0652 183.819H14.5634C9.68471 183.819 5.71484 179.849 5.71484 174.971V173.743C5.71484 168.864 9.68471 164.895 14.5634 164.895H91.0652C92.096 164.895 92.9343 165.733 92.9343 166.764C92.9343 167.794 92.096 168.633 91.0652 168.633H55.8949C53.4618 168.633 51.4819 170.613 51.4819 173.046V175.667C51.4819 178.1 53.4618 180.08 55.8949 180.08H91.0663C92.0971 180.08 92.9354 180.918 92.9354 181.949C92.9354 182.98 92.0971 183.818 91.0663 183.818L91.0652 183.819ZM14.5634 165.395C9.96003 165.395 6.21513 169.14 6.21513 173.743V174.971C6.21513 179.574 9.96003 183.319 14.5634 183.319H91.0652C91.8195 183.319 92.434 182.705 92.434 181.95C92.434 181.196 91.8195 180.581 91.0652 180.581H55.8949C53.1853 180.581 50.9816 178.378 50.9816 175.668V173.047C50.9816 170.337 53.1853 168.134 55.8949 168.134H91.0663C91.8207 168.134 92.4351 167.519 92.4351 166.765C92.4351 166.01 91.8207 165.396 91.0663 165.396H14.5634V165.395Z" fill="#003080"/>
<path d="M71.1035 172.103H68.0906C67.9529 172.103 67.8398 171.991 67.8398 171.852C67.8398 171.713 67.9518 171.602 68.0906 171.602H71.1035C71.2411 171.602 71.3542 171.713 71.3542 171.852C71.3542 171.991 71.2423 172.103 71.1035 172.103Z" fill="#003080"/>
<path d="M88.9356 172.103H72.989C72.8513 172.103 72.7383 171.991 72.7383 171.852C72.7383 171.713 72.8502 171.602 72.989 171.602H88.9356C89.0733 171.602 89.1863 171.713 89.1863 171.852C89.1863 171.991 89.0744 172.103 88.9356 172.103Z" fill="#003080"/>
<path d="M88.7864 174.06H69.9187C69.781 174.06 69.668 173.948 69.668 173.809C69.668 173.671 69.7799 173.559 69.9187 173.559H88.7864C88.9241 173.559 89.0371 173.671 89.0371 173.809C89.0371 173.948 88.9252 174.06 88.7864 174.06Z" fill="#003080"/>
<path d="M68.6046 177.552H65.1765C65.0388 177.552 64.9258 177.44 64.9258 177.301C64.9258 177.163 65.0377 177.051 65.1765 177.051H68.6046C68.7423 177.051 68.8553 177.163 68.8553 177.301C68.8553 177.44 68.7434 177.552 68.6046 177.552Z" fill="#003080"/>
<path d="M88.9349 177.552H70.0671C69.9294 177.552 69.8164 177.44 69.8164 177.301C69.8164 177.163 69.9283 177.051 70.0671 177.051H88.9349C89.0725 177.051 89.1856 177.163 89.1856 177.301C89.1856 177.44 89.0736 177.552 88.9349 177.552Z" fill="#003080"/>
<path d="M89.1094 202.386H20.0078V185.457H89.1094C87.069 191.175 87.0131 196.82 89.1094 202.386Z" fill="white"/>
<path d="M89.1101 202.638H20.0085C19.8709 202.638 19.7578 202.526 19.7578 202.387V185.458C19.7578 185.32 19.8697 185.207 20.0085 185.207H89.1101C89.1918 185.207 89.2679 185.246 89.3149 185.313C89.3619 185.379 89.3731 185.464 89.3462 185.542C87.3093 191.253 87.3081 196.891 89.3451 202.299C89.3742 202.376 89.363 202.462 89.3171 202.529C89.2701 202.596 89.194 202.637 89.1112 202.637L89.1101 202.638ZM20.2592 202.137H88.7508C86.8347 196.824 86.837 191.302 88.7564 185.708H20.2592V202.137Z" fill="#003080"/>
<path d="M28.3222 186.293H89.5791C90.3156 186.293 90.9133 185.696 90.9133 184.959C90.9133 184.223 90.3156 183.625 89.5791 183.625H10.0879C6.85001 183.625 4.22656 186.25 4.22656 189.486V198.701C4.22656 201.939 6.85113 204.562 10.0879 204.562H89.5791C90.3156 204.562 90.9133 203.965 90.9133 203.228C90.9133 202.492 90.3156 201.894 89.5791 201.894H28.3222C26.0345 201.894 24.1811 200.039 24.1811 197.753V190.432C24.1811 188.146 26.0356 186.291 28.3222 186.291V186.293Z" fill="#C383D9"/>
<path d="M89.5798 204.814H10.0886C6.71864 204.814 3.97656 202.072 3.97656 198.702V189.487C3.97656 186.117 6.71864 183.375 10.0886 183.375H89.5798C90.4528 183.375 91.1635 184.086 91.1635 184.959C91.1635 185.832 90.4528 186.542 89.5798 186.542H28.3229C26.1773 186.542 24.4325 188.288 24.4325 190.433V197.754C24.4325 199.899 26.1785 201.644 28.3229 201.644H89.5798C90.4528 201.644 91.1635 202.355 91.1635 203.228C91.1635 204.101 90.4528 204.811 89.5798 204.811V204.814ZM10.0886 183.875C6.99397 183.875 4.47685 186.392 4.47685 189.487V198.702C4.47685 201.796 6.99397 204.313 10.0886 204.313H89.5798C90.1775 204.313 90.6632 203.828 90.6632 203.23C90.6632 202.632 90.1775 202.147 89.5798 202.147H28.3229C25.9009 202.147 23.9311 200.177 23.9311 197.755V190.434C23.9311 188.013 25.9009 186.042 28.3229 186.042H89.5798C90.1775 186.042 90.6632 185.556 90.6632 184.959C90.6632 184.361 90.1775 183.875 89.5798 183.875H10.0886Z" fill="#003080"/>
<path d="M87.8843 189.728H77.6804C77.5427 189.728 77.4297 189.616 77.4297 189.477C77.4297 189.338 77.5416 189.227 77.6804 189.227H87.8843C88.022 189.227 88.135 189.338 88.135 189.477C88.135 189.616 88.0231 189.728 87.8843 189.728Z" fill="#003080"/>
<path d="M75.9312 189.728H57.3835C57.2459 189.728 57.1328 189.616 57.1328 189.477C57.1328 189.338 57.2447 189.227 57.3835 189.227H75.9312C76.0688 189.227 76.1819 189.338 76.1819 189.477C76.1819 189.616 76.07 189.728 75.9312 189.728Z" fill="#003080"/>
<path d="M87.6706 191.99H62.1726C62.0349 191.99 61.9219 191.878 61.9219 191.739C61.9219 191.6 62.0338 191.488 62.1726 191.488H87.6706C87.8082 191.488 87.9213 191.6 87.9213 191.739C87.9213 191.878 87.8094 191.99 87.6706 191.99Z" fill="#003080"/>
<path d="M60.0108 191.99H54.821C54.6834 191.99 54.5703 191.878 54.5703 191.739C54.5703 191.6 54.6822 191.488 54.821 191.488H60.0108C60.1485 191.488 60.2615 191.6 60.2615 191.739C60.2615 191.878 60.1496 191.99 60.0108 191.99Z" fill="#003080"/>
<path d="M87.6676 196.705H60.6296C60.4919 196.705 60.3789 196.593 60.3789 196.454C60.3789 196.315 60.4908 196.203 60.6296 196.203H87.6676C87.8053 196.203 87.9184 196.315 87.9184 196.454C87.9184 196.593 87.8064 196.705 87.6676 196.705Z" fill="#003080"/>
<path d="M58.7311 196.705H57.3835C57.2459 196.705 57.1328 196.593 57.1328 196.454C57.1328 196.315 57.2447 196.203 57.3835 196.203H58.7311C58.8687 196.203 58.9818 196.315 58.9818 196.454C58.9818 196.593 58.8698 196.705 58.7311 196.705Z" fill="#003080"/>
<path d="M190.934 136.957C191.166 136.302 192.114 136.39 192.215 137.093C192.552 139.445 193.223 142.087 193.917 144.933C194.612 147.783 195.334 150.848 195.78 154.07C196.673 160.511 196.469 167.564 192.773 174.735C188.366 183.288 184.823 187.972 182.393 190.513C181.178 191.783 180.242 192.517 179.616 192.931C179.457 193.036 179.317 193.12 179.198 193.188C179.237 193.071 179.283 192.937 179.332 192.786C179.536 192.166 179.827 191.269 180.173 190.161C180.865 187.945 181.779 184.884 182.667 181.506C184.439 174.763 186.12 166.708 185.697 161.592C185.41 158.117 186.156 153.536 187.261 149.021C188.364 144.512 189.818 140.094 190.934 136.957Z" fill="white" stroke="#003080" stroke-width="0.5"/>
<path d="M184.249 113.535C184.754 112.98 185.678 113.535 185.386 114.265L182.302 121.971C178.683 131.012 179.012 141.174 183.209 149.957C186.048 155.898 187.119 162.544 186.291 169.088L184.404 184.006L179.217 183.009L171.282 158.135C166.854 144.254 170.152 129.044 179.917 118.3L184.249 113.535Z" fill="white" stroke="#003080" stroke-width="0.5"/>
<path d="M185.543 177.238C185.533 177.238 185.522 177.238 185.512 177.235C185.374 177.219 185.278 177.093 185.295 176.956L186.29 169.089C186.796 165.085 186.599 161.06 185.702 157.126C185.672 156.992 185.756 156.858 185.89 156.826C186.026 156.796 186.159 156.88 186.19 157.014C187.1 161.006 187.301 165.089 186.787 169.15L185.792 177.017C185.776 177.144 185.669 177.235 185.543 177.235V177.238Z" fill="#003080"/>
<path d="M159.341 158.008C158.638 157.461 159.221 156.363 160.046 156.612L164.588 157.988C169.453 159.462 173.382 163.104 175.249 167.874L181.762 184.51L173.419 183.762L168.972 176.466C167.818 174.575 167.186 172.407 167.14 170.187C167.059 166.259 165.219 162.579 162.134 160.18L159.341 158.008Z" fill="white" stroke="#003080" stroke-width="0.5"/>
<path d="M181.159 177.055C181.151 177.055 181.143 177.055 181.136 177.055C180.998 177.042 180.897 176.92 180.91 176.783C181.925 165.917 179.743 158.923 177.818 152.752C176.928 149.899 176.088 147.205 175.589 144.307C173.233 130.632 181.265 118.766 181.347 118.647C181.426 118.533 181.581 118.505 181.695 118.583C181.809 118.662 181.837 118.817 181.76 118.931C181.68 119.048 173.762 130.753 176.082 144.222C176.576 147.087 177.412 149.766 178.296 152.602C180.236 158.818 182.433 165.864 181.409 176.829C181.396 176.958 181.288 177.056 181.16 177.056L181.159 177.055Z" fill="#003080"/>
<path d="M178.33 172.044C178.225 172.044 178.128 171.977 178.093 171.872C177.232 169.265 175.287 166.558 173.806 164.745C173.719 164.637 173.735 164.481 173.842 164.392C173.95 164.305 174.107 164.321 174.195 164.428C175.702 166.274 177.683 169.035 178.569 171.714C178.612 171.845 178.541 171.987 178.41 172.03C178.384 172.039 178.357 172.042 178.331 172.042L178.33 172.044Z" fill="#003080"/>
<path d="M190.032 169.79C190.019 169.79 190.004 169.789 189.99 169.787C189.853 169.763 189.761 169.635 189.785 169.498C191.6 158.768 190.971 142.25 190.965 142.084C190.959 141.946 191.066 141.83 191.204 141.824C191.346 141.82 191.458 141.926 191.464 142.065C191.47 142.231 192.101 158.802 190.277 169.582C190.256 169.704 190.151 169.79 190.031 169.79H190.032Z" fill="#003080"/>
<path d="M174.125 178.681C173.988 178.681 173.876 178.57 173.874 178.434C173.746 165.08 163.073 159.204 162.964 159.147C162.842 159.082 162.796 158.93 162.862 158.808C162.927 158.686 163.078 158.64 163.2 158.705C163.311 158.765 174.242 164.771 174.375 178.428C174.376 178.566 174.265 178.679 174.127 178.681H174.125Z" fill="#003080"/>
<path d="M175.571 153.671C175.496 153.671 175.422 153.638 175.373 153.575C172.482 149.861 171.2 144.842 171.187 144.791C171.154 144.657 171.235 144.522 171.369 144.488C171.501 144.455 171.638 144.535 171.672 144.669C171.684 144.719 172.942 149.639 175.767 153.267C175.852 153.376 175.832 153.534 175.723 153.619C175.678 153.654 175.624 153.671 175.57 153.671H175.571Z" fill="#003080"/>
<path d="M167.949 180.684H193.188V196.123C193.188 200.784 189.405 204.567 184.744 204.567H176.393C171.732 204.567 167.949 200.784 167.949 196.123V180.684Z" fill="white"/>
<path d="M184.745 204.818H176.393C171.6 204.818 167.699 200.919 167.699 196.125V180.684C167.699 180.547 167.811 180.434 167.95 180.434H193.188C193.327 180.434 193.439 180.546 193.439 180.684V196.125C193.439 200.919 189.538 204.818 184.745 204.818ZM168.2 180.935V196.125C168.2 200.642 171.875 204.318 176.392 204.318H184.744C189.261 204.318 192.936 200.642 192.936 196.125V180.935H168.198H168.2Z" fill="#003080"/>
<path d="M190.713 185.154H170.423C170.284 185.154 170.172 185.042 170.172 184.903C170.172 184.764 170.284 184.652 170.423 184.652H190.713C190.852 184.652 190.964 184.764 190.964 184.903C190.964 185.042 190.852 185.154 190.713 185.154Z" fill="#003080"/>
<path d="M193.602 131.22C193.567 131.22 193.532 131.212 193.497 131.197C193.371 131.139 193.317 130.99 193.375 130.864C199.871 116.806 200.051 104.454 199.058 96.5682C197.984 88.0309 195.347 82.7593 195.321 82.7067C195.258 82.5836 195.308 82.4325 195.431 82.371C195.554 82.3083 195.705 82.3575 195.767 82.4807C195.793 82.5333 198.469 87.8831 199.554 96.5056C200.555 104.456 200.373 116.908 193.828 131.074C193.786 131.165 193.695 131.219 193.601 131.219L193.602 131.22Z" fill="#003080"/>
<path d="M190.394 126.216C190.365 126.216 190.336 126.211 190.307 126.201C190.177 126.152 190.112 126.008 190.16 125.878C196.631 108.534 193.854 100.813 193.825 100.737C193.775 100.609 193.84 100.464 193.97 100.415C194.099 100.366 194.243 100.431 194.293 100.56C194.413 100.878 197.164 108.534 190.629 126.054C190.592 126.155 190.496 126.216 190.395 126.216H190.394Z" fill="#003080"/>
<path d="M192.509 94.2106C192.372 94.2106 192.261 94.102 192.258 93.9644C192.256 93.8267 192.365 93.7125 192.504 93.7103L194.208 93.6801C194.346 93.6722 194.459 93.7875 194.462 93.9252C194.464 94.0628 194.354 94.177 194.215 94.1792L192.512 94.2095C192.512 94.2095 192.509 94.2095 192.507 94.2095L192.509 94.2106Z" fill="#003080"/>
<path d="M186.548 94.3158C186.411 94.3158 186.3 94.2072 186.297 94.0696C186.295 93.9319 186.404 93.8177 186.543 93.8155L188.247 93.7853C188.386 93.7808 188.498 93.8927 188.501 94.0315C188.503 94.1692 188.393 94.2833 188.254 94.2856L186.551 94.3158C186.551 94.3158 186.548 94.3158 186.546 94.3158H186.548Z" fill="#003080"/>
<path d="M190.373 92.1479C190.236 92.1479 190.124 92.0359 190.123 91.8983L190.117 90.2195C190.117 90.0807 190.228 89.9688 190.367 89.9688C190.504 89.9688 190.616 90.0807 190.617 90.2183L190.623 91.8972C190.623 92.0359 190.512 92.1479 190.373 92.1479Z" fill="#003080"/>
<path d="M190.392 98.0229C190.254 98.0229 190.142 97.9109 190.141 97.7733L190.137 96.0945C190.137 95.9568 190.248 95.8438 190.386 95.8438C190.524 95.8438 190.636 95.9557 190.637 96.0933L190.641 97.7722C190.641 97.9098 190.531 98.0229 190.392 98.0229Z" fill="#003080"/>
<path d="M46.7114 17.8336C46.6375 17.8336 46.5648 17.8012 46.5155 17.7396C46.4294 17.6322 46.4473 17.4744 46.5547 17.3882C52.4933 12.6405 64.3323 4.32244 76.8933 1.95754C77.0299 1.9318 77.1597 2.02133 77.1854 2.15676C77.2112 2.29218 77.1216 2.42313 76.9862 2.44887C64.5316 4.79363 52.7697 13.0602 46.867 17.7788C46.8211 17.8157 46.7662 17.8336 46.7103 17.8336H46.7114Z" fill="#003080"/>
<path d="M36.6444 21.7012C36.5806 21.7012 36.5157 21.6766 36.4676 21.6274C36.3702 21.53 36.3702 21.3711 36.4676 21.2737C47.2993 10.4811 57.3219 6.50563 57.4215 6.46645C57.5502 6.41609 57.6957 6.47988 57.745 6.60859C57.7954 6.7373 57.7316 6.8828 57.6028 6.93205C57.5032 6.9701 47.5724 10.9131 36.8201 21.6274C36.7709 21.6755 36.7071 21.7001 36.6433 21.7001L36.6444 21.7012Z" fill="#003080"/>
<path d="M83.1854 4.40415C82.9973 4.40415 82.8082 4.37953 82.6213 4.33029C81.4472 4.02138 80.7443 2.81487 81.0533 1.64081C81.3622 0.466749 82.5687 -0.236119 83.7427 0.0727848C84.3113 0.22276 84.7881 0.584267 85.0836 1.09239C85.3801 1.60052 85.4607 2.19258 85.3108 2.76114C85.1608 3.32971 84.7993 3.80649 84.2911 4.10196C83.9498 4.30119 83.5704 4.40303 83.1854 4.40303V4.40415ZM83.182 0.501445C82.4288 0.501445 81.7382 1.00733 81.5368 1.76952C81.2984 2.67608 81.8412 3.60839 82.7489 3.84678C83.1887 3.96206 83.6465 3.90051 84.0382 3.67107C84.431 3.44163 84.7109 3.07452 84.8261 2.63467C84.9414 2.19482 84.8799 1.73706 84.6504 1.34533C84.4221 0.952489 84.0539 0.672685 83.614 0.557406C83.4696 0.519352 83.3241 0.501445 83.1809 0.501445H83.182Z" fill="#003080"/>
<path d="M10.9406 113.645C10.9081 113.645 10.8746 113.639 10.8432 113.625L9.27408 112.961C9.14649 112.908 9.08717 112.761 9.14089 112.633C9.19461 112.506 9.34235 112.447 9.46882 112.5L11.038 113.164C11.1656 113.218 11.2249 113.364 11.1711 113.492C11.1309 113.587 11.038 113.645 10.9406 113.645Z" fill="#003080"/>
<path d="M5.4484 111.325C5.41595 111.325 5.38237 111.318 5.35103 111.305L3.78189 110.641C3.6543 110.587 3.59498 110.441 3.6487 110.313C3.70242 110.186 3.84904 110.126 3.97663 110.18L5.54578 110.844C5.67337 110.897 5.73268 111.044 5.67896 111.172C5.63867 111.267 5.54577 111.325 5.4484 111.325Z" fill="#003080"/>
<path d="M8.25417 110.233C8.2206 110.233 8.1859 110.226 8.15344 110.212C8.02697 110.156 7.96989 110.008 8.02473 109.882L8.70074 108.345C8.7567 108.218 8.90444 108.161 9.03091 108.216C9.15738 108.272 9.21446 108.42 9.15962 108.546L8.48361 110.083C8.4422 110.177 8.35043 110.233 8.25417 110.233Z" fill="#003080"/>
<path d="M5.88699 115.608C5.85341 115.608 5.81871 115.601 5.78626 115.587C5.65979 115.531 5.60271 115.383 5.65755 115.257L6.33355 113.72C6.38951 113.593 6.53725 113.536 6.66372 113.591C6.79019 113.647 6.84727 113.795 6.79243 113.921L6.11643 115.458C6.07501 115.552 5.98324 115.608 5.88699 115.608Z" fill="#003080"/>
<path d="M5.05789 97.9973C4.89784 97.9973 4.73556 97.9771 4.57439 97.9346C4.08305 97.8059 3.6723 97.4925 3.416 97.0538C3.1597 96.615 3.09031 96.1035 3.22014 95.6122C3.48651 94.5993 4.5285 93.9916 5.54139 94.258C6.55428 94.5243 7.16202 95.5663 6.89565 96.5803C6.67068 97.4321 5.89954 97.9973 5.05677 97.9973H5.05789ZM5.05789 94.6956C4.43785 94.6956 3.86928 95.1119 3.70364 95.7398C3.60851 96.1013 3.65999 96.4785 3.84802 96.8019C4.03605 97.1254 4.33935 97.356 4.70086 97.4511C5.44738 97.6481 6.21516 97.2004 6.41214 96.4539C6.60913 95.7073 6.16144 94.9396 5.41492 94.7437C5.29629 94.7124 5.17653 94.6978 5.05901 94.6978L5.05789 94.6956Z" fill="#003080"/>
<path d="M24.168 149.493C24.168 149.493 41.5718 155.955 62.7216 147.055C62.7216 147.055 66.1543 163.618 47.4152 166.459C28.6751 169.299 24.1859 152.947 24.168 149.495V149.493Z" fill="#FD6A36"/>
<path d="M61.9219 141.674C61.209 141.204 60.4781 140.471 59.8122 139.345C58.083 136.425 54.3504 125.794 52.497 122.912C52.4791 122.88 52.4567 122.848 52.4365 122.817C52.3235 122.627 52.2093 122.482 52.0985 122.382C52.0761 122.36 52.0538 122.339 52.0336 122.325C51.1002 121.499 47.4202 118.642 43.8723 118.199C40.2415 117.75 32.0355 119.11 28.9531 123.145C28.9487 123.15 28.9453 123.153 28.9431 123.158C26.999 125.27 23.3212 130.318 24.0465 137.656C24.502 142.265 25.187 145.84 27.0583 148.29C27.2553 149.736 27.5116 150.837 27.8115 151.422C29.5474 154.815 47.3889 154.93 54.6302 150.462C54.6302 150.462 54.5026 148.287 54.3672 145.225C55.6062 147.056 57.1048 148.653 58.7735 149.229C58.8161 149.243 59.717 148.926 59.7596 148.939C61.3309 149.437 62.3819 147.337 63.0892 145.851C63.7977 144.362 63.2996 142.58 61.9208 141.675L61.9219 141.674Z" fill="white"/>
<path d="M38.3658 154.149C35.2924 154.149 32.5033 153.851 30.5772 153.313C28.97 152.864 27.9649 152.265 27.59 151.535C27.2878 150.945 27.0281 149.886 26.8211 148.387C24.9453 145.895 24.2558 142.302 23.7992 137.68C23.0773 130.377 26.5905 125.346 28.754 122.993C28.7551 122.992 28.7562 122.99 28.7584 122.989C31.9303 118.84 40.3032 117.503 43.9048 117.949C47.1875 118.359 50.7667 120.867 52.2016 122.136C52.2139 122.145 52.2463 122.172 52.2777 122.204C52.403 122.317 52.5317 122.483 52.6537 122.689C52.6772 122.724 52.7007 122.758 52.7186 122.793C53.7013 124.32 55.2134 128.024 56.674 131.607C57.9857 134.821 59.2235 137.858 60.0282 139.216C60.6125 140.204 61.2952 140.96 62.0596 141.464C63.5336 142.432 64.0742 144.364 63.3165 145.956C62.6483 147.36 61.5325 149.697 59.7484 149.194C59.6645 149.218 59.4921 149.273 59.3601 149.315C58.8352 149.484 58.7926 149.498 58.6908 149.462C57.3388 148.995 55.9834 147.853 54.656 146.064C54.7746 148.639 54.8787 150.425 54.8798 150.446C54.8854 150.537 54.8396 150.625 54.7612 150.673C50.8037 153.115 44.0917 154.149 38.3647 154.149H38.3658ZM29.1435 123.306C29.1379 123.312 29.1334 123.319 29.1267 123.326C27.0203 125.613 23.5921 130.515 24.295 137.631C24.7461 142.2 25.4232 145.736 27.2576 148.137C27.2844 148.171 27.3012 148.212 27.3068 148.254C27.506 149.71 27.7579 150.766 28.0343 151.306C28.3376 151.899 29.2632 152.427 30.7104 152.832C36.612 154.48 48.8607 153.623 54.3717 150.325C54.3404 149.781 54.2307 147.812 54.1177 145.234C54.1132 145.123 54.1826 145.021 54.2889 144.986C54.3952 144.951 54.5116 144.99 54.5743 145.083C55.9756 147.156 57.3947 148.462 58.7926 148.968C58.8844 148.942 59.0724 148.882 59.2056 148.839C59.6947 148.682 59.735 148.668 59.8301 148.697C61.1329 149.11 62.0786 147.389 62.8632 145.743C63.5135 144.375 63.0501 142.715 61.7832 141.884C60.955 141.337 60.2196 140.526 59.5962 139.473C58.7725 138.082 57.5268 135.029 56.2084 131.797C54.7556 128.236 53.2536 124.554 52.2855 123.048C52.2642 123.01 52.2508 122.99 52.2374 122.971C52.2351 122.967 52.2228 122.95 52.2206 122.945C52.1255 122.785 52.0247 122.654 51.9296 122.568C51.9072 122.547 51.8949 122.535 51.8826 122.526C51.8266 122.477 47.7907 118.941 43.8399 118.448C40.339 118.014 32.2068 119.297 29.1502 123.298C29.1479 123.301 29.1446 123.305 29.1412 123.308L29.1435 123.306Z" fill="#003080"/>
<path d="M38.2089 147.458C38.1518 147.458 38.0947 147.439 38.0488 147.399C30.7057 141.247 31.6212 130.344 31.6313 130.235C31.6436 130.097 31.7633 129.996 31.9032 130.009C32.0409 130.021 32.1416 130.143 32.1293 130.281C32.1192 130.387 31.2306 141.034 38.3701 147.015C38.4764 147.104 38.4898 147.262 38.4014 147.368C38.3521 147.427 38.2805 147.458 38.21 147.458H38.2089Z" fill="#003080"/>
<path d="M38.4115 113.628C36.886 114.253 35.5799 114.77 33.8507 114.569C33.5564 114.534 29.8753 114.06 29.3671 111.789C29.1444 110.794 27.8909 108.192 27.9793 107.163C28.0476 106.377 28.0409 103.793 27.8125 102.303C27.2541 98.667 31.1344 95.9809 31.9716 95.4425C32.9598 94.8068 35.2822 93.3115 37.4098 94.2685C38.3981 94.7128 38.9778 95.522 39.2823 96.0536C39.5923 95.7615 40.1306 95.3272 40.8939 95.0553C43.2868 94.2047 46.1319 95.5813 47.56 97.5276C47.9014 97.9921 48.7732 99.1807 48.6501 100.673C48.5472 101.908 47.8331 102.5 46.9444 103.848C45.3294 106.299 46.0289 106.864 44.7855 108.859C42.9835 111.751 40.0131 112.969 38.4115 113.626V113.628Z" fill="#003080"/>
<path d="M37.1542 113.171C37.2214 113.506 37.7183 116.764 36.4312 118.21C35.1441 119.657 33.8984 120.058 33.8984 120.058C33.8984 120.058 39.8034 121.437 42.9854 120.701C46.1673 119.964 45.7532 119.136 45.7532 119.136L43.9512 118.193C43.367 117.887 43.0256 117.259 43.085 116.602L43.1197 116.224C43.5338 116.304 44.9048 116.514 46.1919 115.708C47.9368 114.614 48.1125 112.541 48.1326 111.964C48.1718 110.791 47.6838 110.992 47.2731 108.884C46.9205 107.073 47.1153 106.151 46.3889 104.778C46.1203 104.27 45.8282 103.896 45.6379 103.672C44.5668 103.722 43.4666 103.991 42.5455 104.703C41.5662 105.46 41.6636 106.045 40.6954 106.63C39.283 107.485 37.9981 106.894 37.5762 107.632C37.4206 107.904 37.3669 108.385 37.8784 109.295C37.8784 109.295 36.5398 108.415 35.6209 108.955C35.2639 109.164 35.0714 109.516 34.9919 109.777C34.6931 110.761 35.5717 112.117 37.1565 113.172L37.1542 113.171Z" fill="white"/>
<path d="M40.6762 121.167C37.5995 121.167 34.0314 120.344 33.8411 120.299C33.7315 120.274 33.6531 120.178 33.6486 120.067C33.6442 119.955 33.7147 119.853 33.8221 119.818C33.8333 119.815 35.0253 119.413 36.2452 118.042C37.3006 116.857 37.0723 114.16 36.9279 113.317C35.2771 112.188 34.4243 110.777 34.7511 109.7C34.8104 109.507 35.0007 109.024 35.4931 108.734C36.0975 108.381 36.8283 108.541 37.3476 108.746C37.1675 108.239 37.1719 107.829 37.3577 107.503C37.6319 107.024 38.1636 106.975 38.7265 106.922C39.2772 106.871 39.9028 106.813 40.5654 106.412C41.0299 106.131 41.2224 105.855 41.4451 105.534C41.6578 105.229 41.8973 104.883 42.392 104.5C43.2426 103.844 44.3293 103.479 45.6254 103.418C45.7048 103.415 45.7776 103.447 45.828 103.506C46.1301 103.86 46.3932 104.248 46.6092 104.657C47.1106 105.605 47.1912 106.335 47.293 107.259C47.3434 107.713 47.3993 108.226 47.518 108.833C47.7161 109.851 47.9265 110.3 48.0955 110.661C48.2678 111.03 48.4044 111.321 48.3831 111.97C48.3619 112.607 48.1503 114.775 46.326 115.918C45.2258 116.607 44.0697 116.61 43.3455 116.512L43.3355 116.623C43.284 117.18 43.5727 117.709 44.0685 117.969L45.8705 118.913C45.9175 118.937 45.9544 118.975 45.9779 119.022C45.9958 119.058 46.0798 119.253 45.9533 119.523C45.6914 120.079 44.7132 120.557 43.0433 120.943C42.3472 121.104 41.5313 121.167 40.6773 121.167H40.6762ZM34.6794 119.966C36.3448 120.3 40.4915 121.019 42.9292 120.455C45.0479 119.965 45.4351 119.46 45.5045 119.286L43.8346 118.412C43.1586 118.058 42.7658 117.338 42.8352 116.577L42.8699 116.199C42.8766 116.128 42.9124 116.064 42.9684 116.022C43.0243 115.979 43.0971 115.962 43.1665 115.976C43.772 116.093 44.9516 116.186 46.0585 115.493C47.6735 114.482 47.8627 112.528 47.8817 111.953C47.8996 111.424 47.8078 111.228 47.6411 110.872C47.4698 110.507 47.2359 110.007 47.0266 108.928C46.9046 108.301 46.8464 107.776 46.7961 107.314C46.6998 106.442 46.6248 105.755 46.1671 104.891C45.9869 104.551 45.7709 104.226 45.5258 103.925C44.3898 103.998 43.4395 104.325 42.6986 104.897C42.2655 105.231 42.0573 105.53 41.857 105.819C41.6231 106.156 41.3802 106.504 40.8251 106.84C40.064 107.301 39.3488 107.367 38.7735 107.421C38.224 107.472 37.9319 107.51 37.7931 107.752C37.5872 108.111 37.8446 108.721 38.0964 109.169C38.1524 109.269 38.1333 109.395 38.0494 109.474C37.9655 109.553 37.8379 109.564 37.7416 109.501C37.7293 109.493 36.5194 108.714 35.7472 109.168C35.3969 109.372 35.2637 109.74 35.2312 109.847C34.9682 110.713 35.7975 111.965 37.295 112.961C37.3499 112.998 37.3891 113.055 37.4014 113.121C37.4081 113.157 38.0718 116.745 36.6202 118.375C35.8949 119.19 35.1831 119.684 34.6817 119.967L34.6794 119.966Z" fill="#003080"/>
<path d="M42.8705 116.478C40.848 116.478 39.1356 114.843 39.0607 114.77C38.961 114.674 38.9588 114.516 39.0551 114.416C39.1513 114.317 39.3091 114.314 39.4087 114.411C39.4266 114.427 41.1961 116.112 43.1055 115.968C43.242 115.958 43.3629 116.061 43.373 116.199C43.3831 116.337 43.2801 116.456 43.1424 116.468C43.0507 116.474 42.96 116.478 42.8705 116.478Z" fill="#003080"/>
<path d="M56.96 152.946C56.8649 153.634 56.237 154.194 55.5565 154.194H40.2568C39.5763 154.194 39.1074 153.636 39.2092 152.946L42.2042 132.642C42.3038 131.97 42.9284 131.426 43.5999 131.426H58.7004C59.3719 131.426 59.842 131.971 59.7491 132.642L56.96 152.946Z" fill="white"/>
<path d="M55.5577 154.444H40.258C39.8607 154.444 39.5059 154.288 39.2597 154.002C39.0067 153.709 38.9015 153.322 38.962 152.91L41.957 132.606C42.0734 131.817 42.8098 131.176 43.6 131.176H58.7005C59.0967 131.176 59.4503 131.331 59.6966 131.613C59.9462 131.899 60.0525 132.277 59.9976 132.677L57.2086 152.98C57.0977 153.787 56.3568 154.444 55.5566 154.444H55.5577ZM43.6 131.676C43.0482 131.676 42.5334 132.126 42.4517 132.679L39.4567 152.983C39.4175 153.248 39.4824 153.494 39.638 153.675C39.7879 153.849 40.0073 153.944 40.2569 153.944H55.5566C56.1151 153.944 56.6344 153.482 56.7127 152.913L59.5018 132.609C59.5365 132.354 59.4716 132.118 59.3194 131.944C59.1694 131.772 58.9501 131.677 58.7005 131.677H43.6V131.676Z" fill="#003080"/>
<path d="M38.9828 153.378C38.9828 153.378 35.9441 150.977 38.4433 146.808C40.9414 142.638 40.7332 146.267 40.6504 147.434C40.5665 148.601 39.5458 154.109 39.0757 153.557L38.9839 153.379L38.9828 153.378Z" fill="white"/>
<path d="M39.1475 153.844C39.0501 153.844 38.9572 153.801 38.8867 153.717C38.8509 153.674 38.8308 153.623 38.8274 153.57C38.7233 153.485 35.6802 150.935 38.2309 146.677C39.1912 145.075 39.8258 144.462 40.3495 144.628C40.8655 144.791 41.0311 145.634 40.9013 147.449C40.8789 147.757 40.0485 153.566 39.2505 153.827C39.2158 153.838 39.1811 153.843 39.1464 153.843L39.1475 153.844ZM40.1884 145.105C40.1179 145.105 39.7049 145.191 38.6606 146.934C36.3025 150.871 39.1128 153.157 39.1408 153.18C39.1497 153.186 39.1576 153.194 39.1654 153.202C39.593 152.304 40.3238 148.524 40.4033 147.413C40.5555 145.28 40.2365 145.117 40.1996 145.106C40.1996 145.106 40.1951 145.106 40.1884 145.106V145.105Z" fill="#003080"/>
<path d="M46.9258 162.146C46.9258 162.146 58.8768 149.822 62.3385 146.746C65.8003 143.669 68.1976 141.678 71.5273 143.396C74.8558 145.114 70.2503 159.475 62.5489 164.605C54.8476 169.736 50.0294 167.465 50.0294 167.465L46.9258 162.147V162.146Z" fill="#FD6A36"/>
<path d="M45.0176 163.156L41.9219 169.003C41.9219 169.003 44.974 172.925 51.0782 171.749C57.1813 170.573 56.0531 168.454 54.8264 167.353C53.5998 166.252 47.321 162.916 45.0187 163.157L45.0176 163.156Z" fill="white"/>
<path d="M48.8684 172.216C44.1677 172.216 41.7524 169.191 41.7244 169.156C41.664 169.079 41.655 168.973 41.7009 168.885L44.7967 163.04C44.8358 162.966 44.9086 162.917 44.9914 162.908C47.4235 162.655 53.8075 166.103 54.9927 167.166C55.5882 167.7 56.244 168.531 55.9888 169.45C55.6766 170.577 54.0403 171.433 51.1247 171.995C50.3222 172.149 49.569 172.216 48.8684 172.216ZM42.2225 168.968C42.7978 169.606 45.7648 172.517 51.0296 171.502C54.4085 170.851 55.3285 169.953 55.5065 169.315C55.7023 168.608 55.0588 167.898 54.6581 167.538C53.4001 166.409 47.4425 163.308 45.1739 163.396L42.2225 168.968Z" fill="#003080"/>
<path d="M49.18 171.014C47.396 171.014 45.8112 170.763 45.6869 170.742C45.5504 170.72 45.4575 170.591 45.4799 170.456C45.5023 170.319 45.6299 170.226 45.7664 170.249C45.8235 170.258 51.4666 171.152 53.3424 169.587C53.7162 169.275 53.902 168.894 53.9121 168.421C53.9154 168.282 54.0285 168.174 54.1672 168.176C54.3049 168.178 54.4157 168.292 54.4124 168.431C54.4 169.049 54.1482 169.567 53.6625 169.972C52.6742 170.797 50.8398 171.014 49.1789 171.014H49.18Z" fill="#003080"/>
<path d="M47.1726 168.23C47.1592 168.23 47.1457 168.229 47.1312 168.226C46.9946 168.204 46.9029 168.075 46.9252 167.939C47.3158 165.588 48.5593 163.998 48.6119 163.931C48.6981 163.822 48.8548 163.804 48.9633 163.89C49.0719 163.977 49.0898 164.133 49.0047 164.242C48.9924 164.258 47.787 165.803 47.4188 168.02C47.3987 168.142 47.2923 168.23 47.1726 168.23Z" fill="#003080"/>
<path d="M49.4571 168.677C49.4448 168.677 49.4325 168.677 49.4202 168.674C49.2836 168.654 49.1896 168.527 49.2097 168.39C49.5668 165.976 50.536 164.843 50.5763 164.796C50.667 164.692 50.8259 164.682 50.9289 164.773C51.033 164.863 51.043 165.021 50.9535 165.125C50.9445 165.135 50.038 166.208 49.7044 168.464C49.6865 168.588 49.5791 168.678 49.4571 168.678V168.677Z" fill="#003080"/>
<path d="M46.9255 162.144L42.2752 169.993C42.2752 169.993 26.502 166.028 20.343 160.332C14.184 154.635 11.1968 149.613 14.6842 145.874C18.1717 142.135 24.8087 143.887 29.0539 148.107C33.3002 152.326 40.5337 159.45 46.9255 162.144Z" fill="#FD6A36"/>
<path d="M59.7605 143.523C59.7605 143.523 59.4168 140.739 58.1969 140.927C56.977 141.115 56.6322 148.335 58.4465 148.058C60.2607 147.78 59.7605 143.523 59.7605 143.523Z" fill="white"/>
<path d="M58.3486 148.316C57.9233 148.316 57.301 148.004 57.0425 146.32C56.7627 144.491 57.0414 140.853 58.1595 140.68C58.4337 140.638 58.6933 140.706 58.9261 140.883C59.742 141.501 59.9838 143.29 60.0095 143.493C60.0095 143.493 60.0095 143.493 60.0095 143.494C60.0308 143.677 60.5143 147.995 58.4841 148.305C58.4415 148.312 58.3968 148.316 58.3486 148.316ZM58.3151 141.168C58.2893 141.168 58.2624 141.17 58.2356 141.175C57.7476 141.25 57.1958 144.013 57.5372 146.244C57.5965 146.633 57.836 147.898 58.4091 147.811C59.6995 147.614 59.6436 144.671 59.5126 143.553C59.4511 143.062 59.1735 141.696 58.624 141.281C58.5232 141.205 58.4225 141.168 58.3139 141.168H58.3151Z" fill="#003080"/>
</svg>
