<svg width="335" height="205" viewBox="0 0 335 205" fill="none" xmlns="http://www.w3.org/2000/svg">
<path d="M218.71 170.328C218.633 170.328 218.561 170.286 218.523 170.219C218.485 170.149 218.487 170.065 218.53 169.998L219.989 167.732C220.029 167.67 220.093 167.632 220.172 167.634C220.246 167.636 220.313 167.675 220.351 167.738C220.99 168.814 221.54 169.952 221.546 169.962C221.578 170.028 221.574 170.105 221.536 170.168C221.499 170.23 221.431 170.268 221.359 170.27L218.715 170.329H218.71V170.328ZM220.16 168.256L219.107 169.891L221.014 169.849C220.838 169.498 220.521 168.885 220.16 168.256Z" fill="#003080"/>
<path d="M223.076 166.611C223.016 166.611 222.957 166.586 222.915 166.536C222.838 166.447 222.848 166.312 222.937 166.235C225.373 164.121 227.686 161.808 229.811 159.36C243.522 143.575 249.393 122.582 246.342 100.248C246.326 100.131 246.408 100.023 246.524 100.007C246.641 99.9893 246.748 100.073 246.764 100.19C248.255 111.108 247.627 121.753 244.898 131.826C242.072 142.257 237.103 151.616 230.132 159.643C227.993 162.105 225.666 164.433 223.215 166.56C223.175 166.595 223.125 166.612 223.076 166.612V166.611Z" fill="#003080"/>
<path d="M215.167 179.133C215.092 179.133 215.02 179.094 214.98 179.024C214.923 178.921 214.96 178.79 215.062 178.733C222.29 174.656 228.703 169.425 234.123 163.186C235.169 161.982 236.187 160.728 237.148 159.46C237.219 159.366 237.354 159.348 237.447 159.419C237.54 159.491 237.558 159.626 237.487 159.719C236.52 160.994 235.497 162.255 234.444 163.466C228.993 169.742 222.541 175.005 215.27 179.106C215.237 179.125 215.201 179.133 215.166 179.133H215.167Z" fill="#003080"/>
<path d="M242.701 151.605C242.665 151.605 242.629 151.597 242.596 151.578C242.494 151.52 242.458 151.388 242.516 151.286C248.106 141.365 251.322 130.275 252.075 118.325C252.082 118.207 252.186 118.119 252.301 118.125C252.418 118.133 252.507 118.235 252.5 118.353C251.743 130.368 248.509 141.519 242.887 151.497C242.848 151.566 242.775 151.605 242.701 151.605Z" fill="#003080"/>
<path d="M238.795 80.4919C238.678 80.4919 238.582 80.3958 238.582 80.2779V78.6173C238.582 78.4994 238.678 78.4033 238.795 78.4033C238.912 78.4033 239.008 78.4994 239.008 78.6173V80.2779C239.008 80.3958 238.912 80.4919 238.795 80.4919Z" fill="#003080"/>
<path d="M238.795 84.361C238.678 84.361 238.582 84.265 238.582 84.147V82.4865C238.582 82.3685 238.678 82.2725 238.795 82.2725C238.912 82.2725 239.008 82.3685 239.008 82.4865V84.147C239.008 84.265 238.912 84.361 238.795 84.361Z" fill="#003080"/>
<path d="M237.698 81.5961H236.045C235.928 81.5961 235.832 81.5 235.832 81.3821C235.832 81.2642 235.928 81.1681 236.045 81.1681H237.698C237.816 81.1681 237.911 81.2642 237.911 81.3821C237.911 81.5 237.816 81.5961 237.698 81.5961Z" fill="#003080"/>
<path d="M241.55 81.596H239.897C239.779 81.596 239.684 81.4999 239.684 81.382C239.684 81.264 239.779 81.168 239.897 81.168H241.55C241.667 81.168 241.763 81.264 241.763 81.382C241.763 81.4999 241.667 81.596 241.55 81.596Z" fill="#003080"/>
<path d="M152.709 16.9481C152.662 16.9481 152.615 16.9329 152.575 16.8996C152.483 16.8254 152.47 16.6904 152.544 16.5981L153.587 15.3094C153.662 15.2181 153.796 15.2038 153.887 15.278C153.979 15.3522 153.992 15.4872 153.919 15.5795L152.875 16.8682C152.833 16.9205 152.772 16.9472 152.709 16.9472V16.9481Z" fill="#003080"/>
<path d="M150.276 19.9494C150.228 19.9494 150.181 19.9342 150.141 19.9009C150.05 19.8267 150.036 19.6916 150.11 19.5994L151.154 18.3107C151.228 18.2184 151.363 18.2051 151.454 18.2793C151.546 18.3535 151.559 18.4885 151.485 18.5808L150.442 19.8695C150.399 19.9218 150.338 19.9484 150.276 19.9484V19.9494Z" fill="#003080"/>
<path d="M151.16 17.1082C151.113 17.1082 151.066 17.093 151.026 17.0597L149.743 16.0116C149.651 15.9374 149.638 15.8023 149.712 15.7101C149.786 15.6178 149.921 15.6045 150.012 15.6787L151.295 16.7268C151.387 16.801 151.4 16.936 151.326 17.0283C151.284 17.0806 151.223 17.1072 151.16 17.1072V17.1082Z" fill="#003080"/>
<path d="M154.149 19.5496C154.101 19.5496 154.054 19.5344 154.014 19.5011L152.731 18.453C152.639 18.3788 152.626 18.2438 152.7 18.1515C152.775 18.0592 152.909 18.0459 153 18.1201L154.283 19.1682C154.375 19.2424 154.388 19.3774 154.314 19.4697C154.272 19.522 154.211 19.5486 154.149 19.5486V19.5496Z" fill="#003080"/>
<path d="M94.4931 137.72C94.4003 137.72 94.3141 137.659 94.2876 137.564C93.7687 135.713 93.3227 133.815 92.961 131.926C92.9383 131.81 93.015 131.698 93.1305 131.675C93.247 131.654 93.3578 131.73 93.3805 131.846C93.7403 133.723 94.1835 135.608 94.6986 137.448C94.7308 137.563 94.6645 137.68 94.5509 137.713C94.5319 137.719 94.512 137.72 94.4931 137.72Z" fill="#003080"/>
<path d="M113.739 170.351C113.687 170.351 113.634 170.332 113.593 170.293C110.478 167.345 107.612 164.072 105.071 160.567C101.008 154.96 97.818 148.823 95.59 142.329C95.5512 142.217 95.6108 142.095 95.7216 142.057C95.8324 142.019 95.9545 142.078 95.9924 142.19C98.2063 148.644 101.376 154.742 105.415 160.315C107.939 163.799 110.789 167.051 113.884 169.982C113.969 170.063 113.974 170.199 113.893 170.285C113.851 170.329 113.794 170.352 113.737 170.352L113.739 170.351Z" fill="#003080"/>
<path d="M105.764 167.243C105.707 167.243 105.651 167.22 105.61 167.176C102.072 163.425 98.914 159.266 96.2248 154.814C91.5206 147.028 88.34 138.554 86.7729 129.627C86.7521 129.511 86.8297 129.4 86.9462 129.379C87.0636 129.357 87.1725 129.436 87.1933 129.552C88.751 138.425 91.9127 146.85 96.5894 154.591C99.2634 159.016 102.402 163.151 105.919 166.881C106.001 166.966 105.997 167.102 105.911 167.183C105.869 167.222 105.817 167.242 105.764 167.242V167.243Z" fill="#003080"/>
<path d="M84.6221 121.867C84.5842 121.867 84.5463 121.866 84.5085 121.865C83.9432 121.835 83.4233 121.586 83.0446 121.164C82.6658 120.741 82.4736 120.196 82.5029 119.629C82.5323 119.061 82.7804 118.539 83.2008 118.158C84.0691 117.373 85.4108 117.444 86.193 118.316C86.5717 118.738 86.764 119.283 86.7346 119.851C86.7053 120.419 86.4572 120.941 86.0367 121.321C85.6447 121.676 85.1457 121.868 84.6211 121.868L84.6221 121.867ZM84.6183 118.039C84.2149 118.039 83.8096 118.183 83.4868 118.475C83.1506 118.778 82.9527 119.196 82.929 119.649C82.9054 120.103 83.0588 120.539 83.3618 120.876C83.6648 121.214 84.0795 121.413 84.5312 121.437C84.9828 121.46 85.4165 121.306 85.7527 121.002C86.0888 120.699 86.2867 120.281 86.3104 119.827C86.3341 119.374 86.1807 118.938 85.8777 118.6C85.5444 118.229 85.0823 118.039 84.6192 118.039H84.6183Z" fill="#003080"/>
<path d="M161.798 20.0628C161.5 20.0628 161.202 20.0077 160.916 19.8954C160.293 19.652 159.801 19.1736 159.533 18.5497C158.985 17.2743 159.553 15.7782 160.8 15.2161C161.4 14.946 162.068 14.928 162.68 15.1676C163.303 15.4111 163.794 15.8895 164.062 16.5134C164.61 17.7888 164.042 19.2848 162.795 19.8469C162.476 19.9905 162.137 20.0628 161.798 20.0628ZM160.974 15.607C159.939 16.074 159.469 17.318 159.924 18.3804C160.147 18.8987 160.554 19.2953 161.07 19.4969C161.575 19.6938 162.126 19.6795 162.621 19.457C163.656 18.99 164.127 17.746 163.671 16.6836C163.449 16.1653 163.041 15.7687 162.525 15.5671C162.021 15.3702 161.47 15.3845 160.974 15.607Z" fill="#003080"/>
<path d="M221.707 34.4846C214.042 26.1626 203.538 21.5937 192.128 21.6193C183.599 21.6384 175.794 24.3661 168.929 29.7263C165.464 32.4322 162.327 35.74 159.563 39.5986C156.785 35.7533 153.633 32.4588 150.157 29.7682C143.271 24.4383 135.455 21.7458 126.927 21.7649C115.516 21.7905 105.031 26.4061 97.3986 34.7614C89.8585 43.0196 85.7177 54.287 85.7423 66.4903C85.7679 79.0503 90.4474 90.5384 100.468 102.642C109.434 113.469 122.31 124.452 137.22 137.17C142.312 141.513 148.083 146.436 154.076 151.68C155.659 153.068 157.688 153.83 159.792 153.825C161.894 153.82 163.922 153.05 165.497 151.658C171.47 146.386 177.224 141.434 182.3 137.067C197.158 124.286 209.989 113.246 218.911 102.378C228.885 90.2312 233.517 78.7231 233.491 66.1613C233.467 53.9589 229.281 42.7095 221.707 34.4855V34.4846Z" fill="white"/>
<path d="M159.771 154.039C157.623 154.039 155.55 153.259 153.933 151.841C147.949 146.605 142.185 141.687 137.099 137.349L137.08 137.332C122.164 124.609 109.281 113.621 100.303 102.778C90.2477 90.6326 85.5521 79.1017 85.5275 66.4894C85.5028 54.2328 89.6625 42.9131 97.2396 34.6149C104.912 26.2159 115.454 21.5756 126.924 21.5499H127.014C135.556 21.5499 143.385 24.2576 150.285 29.5979C153.695 32.2372 156.815 35.4785 159.561 39.2333C162.29 35.4671 165.396 32.2115 168.796 29.5571C175.699 24.1663 183.549 21.4244 192.125 21.4053C203.603 21.3844 214.155 25.9734 221.861 34.3391C229.472 42.603 233.678 53.9037 233.702 66.1603C233.726 78.7754 229.078 90.3263 219.072 102.513C210.139 113.396 197.301 124.44 182.437 137.228L182.32 137.329C177.277 141.668 171.561 146.587 165.635 151.818C164.02 153.246 161.944 154.034 159.79 154.039H159.77H159.771ZM127.014 21.9779H126.925C115.575 22.0026 105.144 26.5935 97.553 34.905C90.0479 43.1242 85.928 54.3403 85.9526 66.4894C85.9772 78.9961 90.6416 90.4404 100.629 102.505C109.584 113.32 122.454 124.297 137.356 137.007L137.375 137.023C142.461 141.362 148.227 146.28 154.213 151.52C155.753 152.869 157.725 153.612 159.771 153.612H159.79C161.841 153.607 163.817 152.857 165.355 151.498C171.282 146.265 176.999 141.345 182.045 137.004L182.16 136.904C197.011 124.129 209.836 113.096 218.745 102.242C228.685 90.1361 233.302 78.6718 233.277 66.1622C233.254 54.0141 229.088 42.8161 221.549 34.6311C213.946 26.3776 203.533 21.8343 192.221 21.8343H192.127C183.648 21.8533 175.886 24.5658 169.058 29.8966C165.619 32.5824 162.482 35.8893 159.735 39.7241C159.695 39.7802 159.631 39.8125 159.562 39.8135C159.494 39.8135 159.43 39.7802 159.39 39.725C156.627 35.9017 153.477 32.6091 150.026 29.9384C143.203 24.6571 135.461 21.9798 127.016 21.9798L127.014 21.9779Z" fill="#003080"/>
<path d="M120.344 112.551C120.292 112.551 120.241 112.532 120.199 112.494C114.215 106.938 109.738 102.309 106.108 97.9256C103.823 95.1665 101.828 92.416 100.177 89.752C100.114 89.6512 100.146 89.52 100.245 89.4572C100.345 89.3944 100.476 89.4258 100.539 89.5257C102.179 92.1735 104.163 94.9078 106.436 97.6517C110.004 101.961 114.6 106.713 120.488 112.179C120.574 112.259 120.58 112.395 120.5 112.482C120.458 112.528 120.401 112.55 120.344 112.55V112.551Z" fill="#003080"/>
<path d="M100.361 89.8523C100.29 89.8523 100.22 89.8161 100.18 89.7514C95.4199 82.0686 93.0981 74.4543 93.082 66.4747C93.082 66.3568 93.1767 66.2607 93.2951 66.2598C93.4125 66.2598 93.5081 66.3549 93.5081 66.4738C93.5242 74.3715 95.8252 81.9117 100.542 89.5251C100.604 89.6259 100.573 89.7571 100.474 89.8199C100.438 89.8418 100.4 89.8523 100.361 89.8523Z" fill="#003080"/>
<path d="M93.2952 66.6879C93.1778 66.6879 93.0821 66.5928 93.0821 66.4739C93.067 59.0764 94.8434 52.0242 98.2181 46.0799C98.2768 45.9772 98.4065 45.941 98.5088 46C98.6111 46.059 98.647 46.1893 98.5883 46.292C95.2505 52.1716 93.4931 59.1496 93.5082 66.473C93.5082 66.5909 93.4135 66.687 93.2952 66.6879Z" fill="#003080"/>
<path d="M98.4043 46.4021C98.3683 46.4021 98.3323 46.3935 98.2992 46.3745C98.1969 46.3155 98.1609 46.1852 98.2196 46.0825C99.5244 43.7847 101.068 41.6533 102.808 39.7474C102.888 39.6599 103.022 39.6542 103.109 39.7341C103.197 39.8139 103.202 39.949 103.123 40.0365C101.404 41.9187 99.8795 44.0244 98.5908 46.2936C98.551 46.3631 98.4791 46.4021 98.4052 46.4021H98.4043Z" fill="#003080"/>
<path d="M159.591 52.7692C159.522 52.7692 159.458 52.7359 159.418 52.6808L153.277 44.181C150.939 40.9463 148.294 38.1758 145.417 35.9484C139.945 31.7142 133.755 29.5667 127.017 29.5667H126.944C117.731 29.5866 109.272 33.3044 103.124 40.0352C103.045 40.1217 102.91 40.1284 102.823 40.0485C102.736 39.9686 102.73 39.8326 102.81 39.7461C109.039 32.9268 117.609 29.1596 126.944 29.1387H127.017C133.852 29.1387 140.13 31.3157 145.677 35.6098C148.588 37.862 151.261 40.661 153.622 43.9299L159.591 52.19L165.525 43.9061C165.594 43.81 165.726 43.7882 165.822 43.8576C165.918 43.927 165.94 44.0602 165.87 44.1562L159.764 52.6808C159.724 52.7369 159.66 52.7692 159.592 52.7702L159.591 52.7692Z" fill="#003080"/>
<path d="M173.561 35.9323C173.498 35.9323 173.435 35.9037 173.393 35.8495C173.32 35.7563 173.337 35.6222 173.431 35.549C178.982 31.2149 185.276 29.0094 192.14 28.9941H192.219C197.362 28.9941 202.245 30.1117 206.735 32.3153C206.841 32.3676 206.885 32.496 206.833 32.6016C206.78 32.7081 206.654 32.7519 206.548 32.6995C202.117 30.5244 197.296 29.4221 192.219 29.4221H192.141C185.376 29.4373 179.168 31.6125 173.693 35.8866C173.654 35.9171 173.608 35.9313 173.562 35.9313L173.561 35.9323Z" fill="#003080"/>
<path d="M161.724 78.2382C161.724 78.2382 163.643 82.0834 165.546 86.1369C166.694 88.5822 167.674 91.5429 167.86 93.3423C168.157 96.2155 163.859 99.9818 160.537 98.7311C157.407 97.5537 156.173 95.9207 156.173 95.9207C156.173 95.9207 159.056 95.3501 160.458 94.3172C161.861 93.2843 154.699 83.1182 154.699 83.1182L161.725 78.2373L161.724 78.2382Z" fill="white"/>
<path d="M161.929 99.1915C161.419 99.1915 160.926 99.1069 160.464 98.9329C157.313 97.7478 156.058 96.1205 156.005 96.052C155.961 95.9931 155.95 95.9151 155.976 95.8466C156.003 95.7781 156.062 95.7268 156.134 95.7125C156.163 95.7068 158.987 95.139 160.335 94.1461C160.455 94.0576 160.903 93.3671 157.925 88.4424C156.332 85.8089 154.545 83.2686 154.527 83.2429C154.494 83.1963 154.482 83.1383 154.491 83.0822C154.501 83.026 154.533 82.9756 154.58 82.9433L161.606 78.0624C161.657 78.0272 161.721 78.0158 161.781 78.031C161.84 78.0462 161.89 78.0871 161.918 78.1422C161.937 78.1803 163.859 82.036 165.741 86.0457C166.954 88.6298 167.892 91.5534 168.075 93.3205C168.224 94.7719 167.272 96.5247 165.646 97.7859C164.46 98.7065 163.148 99.1906 161.929 99.1906V99.1915ZM156.578 96.0539C157.062 96.5533 158.325 97.6708 160.614 98.5325C162.037 99.0679 163.821 98.6628 165.385 97.4482C166.897 96.2755 167.786 94.673 167.65 93.3652C167.475 91.6685 166.531 88.7335 165.356 86.2283C163.733 82.7712 162.081 79.4291 161.646 78.5541L154.999 83.1716C155.433 83.7955 156.931 85.9734 158.288 88.2189C161.275 93.1569 161.03 94.1622 160.587 94.4894C159.446 95.3292 157.408 95.8609 156.578 96.052V96.0539Z" fill="#003080"/>
<path d="M126.074 170.622L126.378 176.265L130.135 176.901L130.469 170.246L126.074 170.622Z" fill="white"/>
<path d="M130.132 177.115C130.121 177.115 130.108 177.114 130.097 177.112L126.342 176.476C126.243 176.459 126.169 176.376 126.165 176.276L125.86 170.635C125.853 170.52 125.94 170.42 126.055 170.41L130.449 170.034C130.511 170.027 130.571 170.05 130.616 170.093C130.66 170.135 130.684 170.195 130.68 170.257L130.346 176.912C130.343 176.973 130.314 177.03 130.267 177.068C130.229 177.098 130.181 177.115 130.133 177.115H130.132ZM126.58 176.082L129.931 176.65L130.241 170.481L126.295 170.818L126.579 176.082H126.58Z" fill="#003080"/>
<path d="M130.235 186.442C128.649 186.585 126.056 186.91 123.045 186.335C122.061 186.146 121.452 185.145 121.74 184.181C122.544 181.491 123.953 176.379 126.048 174.084L126.502 175.207L127.212 174.219C127.313 174.056 127.485 173.952 127.676 173.936L129.168 173.822C129.48 173.798 129.758 174.019 129.806 174.329L129.848 175.005L130.85 174.029L131.104 179.994C131.154 181.156 131.285 182.054 131.498 183.198L131.762 184.614C131.836 185.541 131.156 186.358 130.235 186.441V186.442Z" fill="white"/>
<path d="M126.663 186.878C125.556 186.878 124.321 186.796 123.006 186.545C122.476 186.444 122.012 186.12 121.733 185.658C121.454 185.196 121.382 184.636 121.537 184.121L121.709 183.539C122.531 180.762 123.907 176.114 125.892 173.939C125.941 173.885 126.015 173.859 126.087 173.874C126.159 173.887 126.219 173.936 126.247 174.004L126.555 174.769L127.04 174.094C127.169 173.886 127.404 173.743 127.66 173.723L129.153 173.61C129.573 173.576 129.952 173.88 130.018 174.297L130.033 174.53L130.703 173.877C130.763 173.818 130.852 173.8 130.93 173.832C131.008 173.863 131.061 173.937 131.064 174.021L131.319 179.986C131.369 181.151 131.5 182.033 131.709 183.16L131.973 184.576C131.973 184.584 131.975 184.59 131.975 184.598C132.06 185.64 131.288 186.562 130.255 186.655L129.833 186.694C128.982 186.775 127.903 186.877 126.663 186.877V186.878ZM125.982 174.488C124.181 176.69 122.898 181.028 122.118 183.66L121.945 184.242C121.826 184.643 121.881 185.077 122.096 185.435C122.313 185.795 122.674 186.046 123.086 186.125C125.812 186.646 128.208 186.418 129.793 186.269L130.217 186.229C131.013 186.158 131.61 185.447 131.551 184.644L131.29 183.238C131.077 182.091 130.943 181.194 130.893 180.003L130.658 174.516L129.997 175.16C129.938 175.218 129.85 175.236 129.772 175.205C129.694 175.175 129.641 175.103 129.637 175.019L129.595 174.343C129.566 174.164 129.385 174.019 129.185 174.035L127.693 174.149C127.57 174.158 127.459 174.227 127.393 174.33L126.676 175.331C126.63 175.394 126.554 175.427 126.478 175.418C126.401 175.409 126.335 175.358 126.305 175.286L125.982 174.486V174.488Z" fill="#003080"/>
<path d="M126.821 185.157C125.581 185.157 124.161 185.03 122.761 184.635C122.647 184.602 122.582 184.485 122.613 184.37C122.645 184.256 122.763 184.191 122.877 184.222C126.539 185.258 130.468 184.364 130.508 184.355C130.623 184.328 130.737 184.4 130.763 184.515C130.79 184.63 130.719 184.745 130.604 184.772C130.501 184.796 128.918 185.156 126.821 185.156V185.157Z" fill="#003080"/>
<path d="M128.795 180.977H128.792L125.244 180.915C125.127 180.914 125.033 180.816 125.035 180.698C125.037 180.581 125.133 180.488 125.248 180.488H125.252L128.799 180.549C128.917 180.551 129.01 180.649 129.008 180.767C129.006 180.884 128.911 180.977 128.795 180.977Z" fill="#003080"/>
<path d="M143.918 168.531L144.073 176.751L148.619 176.981L149.241 168.801L143.918 168.531Z" fill="white"/>
<path d="M148.618 177.195C148.618 177.195 148.611 177.195 148.607 177.195L144.061 176.965C143.949 176.959 143.861 176.868 143.858 176.754L143.703 168.535C143.702 168.476 143.726 168.419 143.768 168.377C143.81 168.336 143.868 168.312 143.927 168.317L149.25 168.587C149.308 168.589 149.361 168.616 149.4 168.659C149.438 168.702 149.456 168.76 149.453 168.817L148.83 176.996C148.821 177.108 148.728 177.194 148.618 177.194L148.618 177.195ZM144.282 176.546L148.422 176.755L149.011 169.003L144.134 168.756L144.281 176.545L144.282 176.546Z" fill="#003080"/>
<path d="M142.648 181.313C142.598 182.087 143.09 182.794 143.834 183.008C146.417 183.751 152.235 185.409 153.903 185.746C156.067 186.182 158.778 185.647 159.994 184.425C161.21 183.203 157.633 179.956 155.919 178.753C153.372 176.967 151.009 173.573 149.956 173.372C148.904 173.172 146.771 176.159 146.771 176.159L143.606 174.631C143.606 174.631 142.903 177.386 142.648 181.312V181.313Z" fill="white"/>
<path d="M155.474 186.111C154.929 186.111 154.384 186.061 153.863 185.956C152.182 185.617 146.25 183.926 143.776 183.214C142.944 182.975 142.381 182.169 142.438 181.3C142.691 177.399 143.395 174.608 143.402 174.581C143.419 174.519 143.461 174.466 143.519 174.44C143.577 174.412 143.644 174.413 143.702 174.441L146.706 175.891C147.245 175.157 148.953 172.965 149.998 173.164C150.593 173.278 151.41 174.139 152.542 175.332C153.596 176.443 154.791 177.702 156.043 178.58C157.42 179.545 160.31 182.061 160.452 183.676C160.484 184.039 160.382 184.342 160.148 184.577C159.198 185.533 157.333 186.111 155.475 186.111H155.474ZM143.755 174.941C143.579 175.709 143.07 178.142 142.863 181.327C142.819 181.998 143.253 182.618 143.894 182.803C146.361 183.513 152.281 185.2 153.946 185.536C156.115 185.974 158.706 185.419 159.845 184.274C159.987 184.131 160.047 183.948 160.026 183.713C159.906 182.342 157.213 179.922 155.798 178.93C154.51 178.027 153.3 176.751 152.232 175.626C151.279 174.62 150.378 173.671 149.918 173.584C149.249 173.452 147.74 175.173 146.946 176.285C146.885 176.37 146.773 176.398 146.681 176.353L143.755 174.941Z" fill="#003080"/>
<path d="M155.616 184.006C151.253 184.006 144.689 181.597 144.342 181.469C144.232 181.428 144.176 181.304 144.216 181.194C144.257 181.082 144.379 181.026 144.49 181.067C144.595 181.106 155.03 184.937 158.203 183.07C158.304 183.01 158.435 183.045 158.495 183.146C158.554 183.248 158.52 183.379 158.419 183.439C157.731 183.844 156.748 184.006 155.617 184.006H155.616Z" fill="#003080"/>
<path d="M150.284 179.379C150.222 179.379 150.161 179.353 150.118 179.301C150.044 179.208 150.057 179.074 150.148 178.999L152.566 177.022C152.657 176.948 152.791 176.961 152.866 177.052C152.94 177.144 152.927 177.279 152.836 177.354L150.418 179.331C150.378 179.363 150.331 179.379 150.284 179.379Z" fill="#003080"/>
<path d="M127.612 114.176C127.612 114.176 124.918 139.709 123.738 148.51C122.557 157.311 124.305 171.643 124.305 171.643L131.341 171.628C131.341 171.628 132.335 158.909 133.099 152.293C133.286 150.671 133.733 149.092 134.411 147.608C135.476 145.276 137.147 141.26 137.912 137.498C139.081 131.742 142.535 122.733 142.535 122.733C142.535 122.733 142.669 168.582 142.723 172.186C142.723 172.186 148.213 172.711 150.249 171.564C150.249 171.564 154.582 155.068 154.535 145.972C154.489 136.874 156.172 114.364 156.172 114.364L127.614 114.176H127.612Z" fill="#6692FD"/>
<path d="M130.053 149.948C129.384 149.948 128.718 149.756 128.148 149.384C128.049 149.319 128.021 149.187 128.085 149.087C128.15 148.988 128.281 148.959 128.38 149.024C129.178 149.545 130.19 149.663 131.086 149.339C131.197 149.298 131.319 149.356 131.359 149.467C131.398 149.579 131.342 149.701 131.231 149.741C130.85 149.879 130.451 149.947 130.053 149.947V149.948Z" fill="white"/>
<path d="M128.428 121.765C128.32 121.765 128.227 121.683 128.216 121.573C128.204 121.455 128.289 121.35 128.405 121.338C129.54 121.219 130.888 120.412 131.272 118.503C131.295 118.387 131.407 118.312 131.523 118.336C131.638 118.359 131.713 118.472 131.689 118.588C131.26 120.724 129.734 121.629 128.449 121.763C128.441 121.763 128.434 121.764 128.426 121.764L128.428 121.765Z" fill="white"/>
<path d="M146.772 163.827C146.767 163.827 146.763 163.827 146.757 163.827C146.64 163.818 146.551 163.717 146.559 163.599C146.848 159.377 151.848 152.033 152.061 151.723C152.127 151.626 152.259 151.601 152.357 151.667C152.454 151.735 152.478 151.868 152.412 151.965C152.361 152.04 147.266 159.523 146.985 163.628C146.978 163.741 146.884 163.828 146.773 163.828L146.772 163.827Z" fill="white"/>
<path d="M122.966 83.7515C122.966 83.7515 121.817 69.5262 131.285 65.8979C139.819 62.6271 151.205 62.6785 157.329 66.7538C160.352 68.7663 164.216 80.2202 164.216 80.2202L158.294 86.5353C158.294 86.5353 158.574 113.602 156.924 120.66C156.924 120.66 148.925 121.189 145.619 119.683C142.314 118.179 131.317 115.747 125.893 117.925L128.571 83.5413L122.966 83.7515Z" fill="white"/>
<path d="M153.7 120.966C151.079 120.966 147.513 120.779 145.532 119.877C142.278 118.395 131.394 115.946 125.973 118.122C125.905 118.15 125.827 118.14 125.768 118.096C125.708 118.052 125.676 117.981 125.681 117.907L128.341 83.7628L122.974 83.9644C122.862 83.9758 122.763 83.8816 122.754 83.7675C122.751 83.7314 122.474 80.1325 123.367 76.137C124.556 70.8167 127.268 67.2064 131.209 65.696C140.224 62.2408 151.503 62.6184 157.447 66.5729C160.496 68.6026 164.261 79.6788 164.419 80.1496C164.444 80.2247 164.426 80.3075 164.372 80.3655L158.509 86.6179C158.524 88.3137 158.722 113.903 157.133 120.707C157.111 120.799 157.032 120.866 156.939 120.872C156.807 120.881 155.468 120.966 153.7 120.966ZM131.594 116.84C137.028 116.84 143.349 118.413 145.708 119.487C148.674 120.838 155.617 120.517 156.753 120.454C158.339 113.266 158.085 86.8043 158.082 86.5361C158.082 86.4809 158.102 86.4277 158.14 86.3868L163.974 80.1658C163.549 78.9341 159.975 68.7699 157.211 66.9306C151.372 63.0444 140.259 62.6859 131.361 66.0965C122.766 69.39 123.077 81.7798 123.166 83.5288L128.564 83.3262C128.625 83.3215 128.683 83.3481 128.726 83.3918C128.768 83.4356 128.789 83.4955 128.784 83.5564L126.132 117.604C127.66 117.058 129.566 116.839 131.593 116.839L131.594 116.84Z" fill="#003080"/>
<path d="M133.557 111.468C133.45 111.468 133.359 111.389 133.345 111.28C133.331 111.163 133.414 111.056 133.53 111.041C146.301 109.435 150.421 100.831 150.46 100.744C150.51 100.637 150.637 100.59 150.744 100.64C150.851 100.691 150.897 100.817 150.847 100.925C150.806 101.014 146.585 109.832 133.583 111.467C133.574 111.468 133.565 111.468 133.557 111.468V111.468Z" fill="#003080"/>
<path d="M152.642 77.1332C152.642 77.1332 155.14 81.3284 159.346 87.0007C163.553 92.6729 163.079 94.7073 160.827 96.9119C158.575 99.1165 150.527 96.3716 143.82 85.8375C137.113 75.3024 143.455 72.2922 145.621 72.0097C149.694 71.479 152.641 77.1332 152.641 77.1332H152.642Z" fill="white"/>
<path d="M158.717 97.8345C158.491 97.8345 158.255 97.8202 158.01 97.7917C154.609 97.3989 148.806 94.0616 143.643 85.9517C140.753 81.4122 139.92 77.7477 141.167 75.0618C142.216 72.803 144.445 71.9461 145.596 71.7968C149.737 71.2528 152.67 76.7224 152.83 77.0277C152.93 77.1961 155.433 81.3627 159.52 86.8723C163.74 92.5627 163.322 94.7692 160.979 97.0641C160.46 97.572 159.686 97.8335 158.717 97.8335V97.8345ZM146.159 72.1886C145.991 72.1886 145.822 72.1991 145.65 72.2219C144.659 72.3513 142.526 73.1492 141.553 75.2435C140.388 77.7524 141.235 81.3751 144.002 85.7215C149.084 93.7049 154.75 96.9842 158.058 97.3666C159.213 97.5007 160.144 97.2848 160.68 96.7588C162.893 94.5913 163.233 92.5978 159.177 87.1291C155.011 81.513 152.485 77.2855 152.46 77.2427C152.459 77.2389 152.457 77.236 152.455 77.2322C152.427 77.1799 149.779 72.1886 146.159 72.1886Z" fill="#003080"/>
<path d="M149.688 74.7476C149.688 74.7476 151.685 76.6773 151.835 78.6556C151.986 80.6329 149.91 81.6667 147.107 79.9177C144.305 78.1686 144.878 76.0258 145.799 75.0367C147.785 72.9015 149.688 74.7485 149.688 74.7485V74.7476Z" fill="white"/>
<path d="M149.77 81.0216C148.939 81.0216 147.974 80.7077 146.996 80.0981C145.402 79.1023 144.952 78.02 144.855 77.2876C144.744 76.4374 145.038 75.5405 145.645 74.889C146.304 74.1805 147.028 73.8114 147.797 73.7924C148.966 73.7525 149.803 74.559 149.838 74.5932C149.927 74.6788 151.895 76.6057 152.05 78.6382C152.117 79.5236 151.769 80.2683 151.093 80.6801C150.718 80.9094 150.268 81.0216 149.77 81.0216ZM147.86 74.2195C147.841 74.2195 147.822 74.2195 147.803 74.2195C147.154 74.2375 146.533 74.5609 145.956 75.181C145.436 75.7402 145.182 76.5059 145.278 77.2306C145.399 78.1503 146.071 79.0158 147.222 79.7338C148.645 80.6221 150.009 80.839 150.871 80.314C151.413 79.984 151.681 79.4 151.625 78.6705C151.482 76.7988 149.56 74.9195 149.542 74.9004C149.531 74.89 148.82 74.2185 147.86 74.2185V74.2195Z" fill="#003080"/>
<path d="M124.238 83.4248L131.464 83.0976C131.464 83.0976 131.518 89.2093 132.17 89.3177C134.493 89.7067 139.357 89.7257 142.523 89.3424C143.625 89.2083 144.498 88.3619 144.705 87.2662C144.862 86.4388 145.033 85.189 146.44 84.7668C147.671 84.3978 146.455 86.2181 147.478 87.5877C148.027 88.3238 149.768 87.9976 152.14 87.445C154.512 86.8934 155.115 89.4394 152.456 90.9783C149.573 92.6465 147.742 92.4591 146.823 92.655C144.991 93.044 128.803 95.5929 126.304 94.2281C124.374 93.1743 124.24 83.4238 124.24 83.4238L124.238 83.4248Z" fill="white"/>
<path d="M129.395 94.8297C127.895 94.8297 126.744 94.7108 126.203 94.416C124.221 93.3336 124.042 84.4372 124.027 83.4262C124.025 83.3102 124.116 83.2151 124.231 83.2094L131.456 82.8822C131.513 82.8784 131.57 82.9003 131.612 82.9412C131.654 82.9811 131.678 83.0363 131.678 83.0943C131.702 85.7478 131.92 88.777 132.232 89.1099C134.586 89.4979 139.372 89.5075 142.498 89.1289C143.501 89.0072 144.304 88.2425 144.497 87.2249L144.518 87.1136C144.674 86.2728 144.91 85.0012 146.38 84.5609C146.566 84.5048 146.839 84.4477 147.04 84.6056C147.279 84.7929 147.266 85.1429 147.248 85.5871C147.226 86.152 147.199 86.8558 147.649 87.4588C148.126 88.098 149.943 87.7365 152.091 87.2363C153.367 86.9395 154.074 87.4759 154.31 88.077C154.629 88.8912 154.218 90.2046 152.562 91.1633C150.256 92.4976 148.633 92.6631 147.56 92.7725C147.287 92.8001 147.051 92.8248 146.867 92.8638C145.321 93.1919 134.963 94.8297 129.393 94.8297H129.395ZM124.457 83.6288C124.512 86.4488 124.951 93.2452 126.407 94.0403C128.811 95.3528 144.913 92.8419 146.779 92.4453C146.987 92.4016 147.233 92.3759 147.518 92.3474C148.556 92.2418 150.124 92.082 152.35 90.7933C153.788 89.9611 154.169 88.8835 153.914 88.2349C153.696 87.6804 153.036 87.4569 152.188 87.6547C149.731 88.2263 147.942 88.5659 147.308 87.7166C146.766 86.9918 146.798 86.1711 146.822 85.5709C146.831 85.3284 146.845 84.9965 146.777 84.9451C146.76 84.9309 146.679 84.9194 146.501 84.9727C145.28 85.3389 145.089 86.367 144.936 87.1935L144.915 87.3057C144.688 88.5069 143.737 89.4114 142.549 89.555C139.378 89.9392 134.513 89.9269 132.136 89.5293C131.921 89.4932 131.561 89.4333 131.36 86.1806C131.287 84.9936 131.262 83.8029 131.254 83.3216L124.455 83.6298L124.457 83.6288Z" fill="#003080"/>
<path d="M162.959 93.9829L162.955 93.9953C162.707 94.8684 161.797 95.3686 160.931 95.108C160.064 94.8465 159.952 94.7961 159.173 94.3738L158.273 93.8859C157.6 93.5216 156.569 93.748 156.451 94.4404C156.285 95.4124 155.917 96.9037 160.916 99.3489C163.827 100.772 164.978 96.6859 164.59 94.7343C164.491 94.2349 164.214 93.9144 163.928 93.7109C163.587 93.4674 163.071 93.612 162.959 93.9839V93.9829Z" fill="white"/>
<path d="M162.06 99.8556C161.701 99.8556 161.289 99.7671 160.824 99.5398C155.781 97.0737 156.052 95.5015 156.232 94.462L156.242 94.403C156.296 94.0835 156.507 93.8191 156.836 93.6574C157.297 93.432 157.916 93.4472 158.375 93.6964L159.275 94.1843C160.036 94.5971 160.132 94.6418 160.994 94.9024C161.357 95.0117 161.741 94.9708 162.074 94.7882C162.407 94.6056 162.648 94.3032 162.752 93.9361C162.752 93.9351 162.756 93.9218 162.757 93.9208C162.827 93.6897 163.009 93.509 163.255 93.4244C163.527 93.3321 163.826 93.373 164.054 93.5357C164.455 93.821 164.706 94.21 164.801 94.6912C165.054 95.9647 164.686 98.3757 163.359 99.4038C163.056 99.6387 162.623 99.8556 162.061 99.8556H162.06ZM157.559 93.9266C157.369 93.9266 157.181 93.9646 157.022 94.0426C156.879 94.112 156.701 94.2442 156.662 94.4744L156.651 94.5343C156.493 95.4483 156.256 96.8292 161.011 99.1537C161.813 99.5455 162.515 99.516 163.098 99.0633C164.244 98.1741 164.619 95.9657 164.383 94.773C164.309 94.4021 164.116 94.1025 163.807 93.8828C163.692 93.801 163.533 93.7791 163.392 93.8276C163.278 93.8666 163.194 93.9446 163.165 94.0416L163.162 94.0521C163.027 94.5286 162.713 94.9233 162.28 95.161C161.846 95.3998 161.346 95.4521 160.873 95.3094C159.979 95.0403 159.845 94.9765 159.074 94.5581L158.173 94.0702C157.993 93.9732 157.775 93.9237 157.56 93.9237L157.559 93.9266Z" fill="#003080"/>
<path d="M150.118 55.9661C150.746 55.6798 151.071 56.1563 152.008 56.027C153.002 55.89 154.097 55.1501 154.507 54.0677C155.002 52.761 154.288 51.516 153.837 50.7304C153.389 49.9496 152.819 49.0793 151.83 48.7037C150.54 48.2138 150 48.9662 148.523 48.5039C147.323 48.1283 147.41 47.5471 146.342 47.2418C145.451 46.987 142.883 47.1325 142.308 48.5039C141.943 49.3742 142.729 49.9039 142.337 51.1926C142.101 51.9668 141.732 52.061 141.462 52.6592C140.793 54.1419 141.632 56.746 143.23 57.6181C145.398 58.8022 149.035 56.4588 150.118 55.9651V55.9661Z" fill="#003080"/>
<path d="M148.12 58.4532L148.625 62.6123C148.721 63.4045 149.29 64.057 150.058 64.2576L152.187 64.815L151.887 65.0442C148.185 67.8756 143.056 67.8803 139.349 65.0556L138.246 64.2148L140.892 63.6214C141.652 63.4511 142.236 62.8396 142.375 62.0692L143.474 55.9424L148.12 58.4523V58.4532Z" fill="white"/>
<path d="M145.613 67.3777C143.359 67.3777 141.105 66.6606 139.223 65.2273L138.12 64.3866C138.053 64.3362 138.022 64.2515 138.04 64.1707C138.058 64.0889 138.121 64.0252 138.202 64.0071L140.848 63.4136C141.526 63.2615 142.044 62.7193 142.167 62.0327L143.266 55.9058C143.278 55.8383 143.322 55.7812 143.384 55.7508C143.445 55.7213 143.517 55.7222 143.577 55.7546L148.223 58.2645C148.284 58.2978 148.325 58.3577 148.334 58.4271L148.839 62.5862C148.925 63.2957 149.426 63.8701 150.114 64.0508L152.244 64.6082C152.322 64.6291 152.383 64.6928 152.399 64.7737C152.415 64.8536 152.384 64.9363 152.319 64.9858L152.019 65.215C150.135 66.6568 147.874 67.3777 145.613 67.3777ZM138.744 64.3238L139.48 64.8849C143.081 67.6288 148.103 67.6364 151.711 64.9106L150.006 64.4646C149.147 64.2392 148.522 63.5221 148.415 62.6375L147.924 58.5888L143.633 56.271L142.586 62.1078C142.433 62.9647 141.786 63.6409 140.941 63.8302L138.744 64.3229V64.3238Z" fill="#003080"/>
<path d="M144.006 56.7878C144.006 56.7878 142.372 56.1687 142.985 54.8124C143.599 53.4552 144.598 54.4577 144.598 54.4577C144.598 54.4577 145.527 51.1156 147.478 52.4338C149.429 53.752 151.277 54.2313 151.277 54.2313C151.277 54.2313 150.59 57.5943 149.356 59.8332C148.612 61.1828 147.669 62.1234 146.557 61.6697C143.514 60.4285 144.005 56.7888 144.005 56.7888L144.006 56.7878Z" fill="white"/>
<path d="M147.129 62.002C146.915 62.002 146.697 61.9573 146.477 61.8679C143.693 60.7323 143.728 57.6632 143.779 56.9223C143.511 56.792 142.963 56.4676 142.735 55.9151C142.582 55.5441 142.6 55.1437 142.791 54.7243C143.008 54.245 143.301 53.9682 143.662 53.9026C143.987 53.8436 144.287 53.9749 144.489 54.1042C144.691 53.5374 145.216 52.3324 146.113 52.0004C146.586 51.8245 147.085 51.912 147.596 52.2572C149.492 53.5383 151.312 54.0196 151.331 54.0253C151.441 54.0538 151.509 54.1641 151.486 54.2754C151.458 54.4143 150.778 57.6964 149.542 59.9381C148.785 61.3124 147.975 62.0039 147.129 62.0039L147.129 62.002ZM143.827 54.3154C143.796 54.3154 143.766 54.3182 143.737 54.3239C143.522 54.3639 143.334 54.5579 143.179 54.9012C143.038 55.2122 143.022 55.4899 143.13 55.7505C143.36 56.3088 144.074 56.5846 144.08 56.5875C144.173 56.6227 144.23 56.7178 144.217 56.8167C144.198 56.9584 143.787 60.3072 146.637 61.4703C147.488 61.8184 148.341 61.2316 149.169 59.7289C150.206 57.8496 150.859 55.1257 151.026 54.3819C150.493 54.2202 148.969 53.7 147.359 52.612C146.962 52.3438 146.603 52.2753 146.261 52.4008C145.304 52.7546 144.808 54.498 144.802 54.5151C144.781 54.5883 144.724 54.6454 144.65 54.6644C144.578 54.6844 144.499 54.6625 144.446 54.6092C144.443 54.6064 144.145 54.3154 143.826 54.3154H143.827Z" fill="#003080"/>
<path d="M186.784 53.7605C189.214 51.1184 192.828 50.5621 195.544 51.3077C198.982 52.2502 200.715 55.2376 201.938 57.3442C204.099 61.0677 203.055 62.4163 204.754 64.58C207.762 68.411 215.059 65.8744 218.612 68.8171C227.148 75.8874 222.495 87.5724 214.928 93.0896C209.882 96.7684 203.017 94.6408 201.15 94.0616C195.482 92.305 186.091 88.863 185.181 80.6428C184.569 75.1161 190.186 70.685 187.168 66.078C186.4 64.9043 185.763 64.5867 185.192 63.1192C184.265 60.7367 184.057 56.7251 186.784 53.7605Z" fill="#003080"/>
<path d="M195.655 54.412C194.363 53.3601 195.18 50.2568 196.007 48.5819C196.316 47.9542 197.703 45.1466 199.525 45.256C201.398 45.3682 203.191 48.5248 202.522 51.0252C201.687 54.1514 197.168 55.6446 195.655 54.412Z" fill="#003080"/>
<path d="M178.251 87.0341C178.251 87.0341 175.831 98.1884 175.162 103.369C174.494 108.549 175.643 115.5 177.825 113.801C180.007 112.103 183.789 90.2221 183.789 90.2221L178.25 87.0341H178.251Z" fill="white"/>
<path d="M177.178 114.277C176.974 114.277 176.802 114.213 176.667 114.136C175.039 113.199 174.409 107.564 174.953 103.342C175.615 98.2118 178.02 87.1004 178.045 86.9891C178.059 86.9225 178.105 86.8664 178.167 86.8388C178.23 86.8113 178.301 86.8141 178.359 86.8493L183.899 90.0373C183.976 90.082 184.018 90.1705 184.003 90.2599C183.848 91.1567 180.181 112.242 177.959 113.972C177.667 114.199 177.403 114.277 177.178 114.277V114.277ZM178.4 87.3648C178.018 89.1433 175.976 98.7454 175.377 103.396C174.811 107.778 175.57 113.01 176.879 113.764C177.039 113.856 177.299 113.943 177.698 113.633C179.421 112.292 182.486 96.5047 183.558 90.3331L178.401 87.3648H178.4Z" fill="#003080"/>
<path d="M217.938 88.7018C217.305 86.5153 216.506 83.8818 215.809 81.9767C213.427 75.4599 208.492 74.0038 206.569 73.5416C206.266 73.4684 202.846 73.0128 202.846 73.0128V73.0166C199.001 72.0123 193.671 71.5539 187.45 73.5435C187.252 73.6063 187.06 73.6814 186.871 73.7613V73.7594C182.474 74.8085 178.482 84.2356 177.382 87.0441C177.206 87.494 177.386 88.0047 177.803 88.2453L180.849 89.9982L176.908 112.796C176.621 115.226 177.203 121.629 179.481 122.497C181.861 123.403 188.11 120.219 193.205 120.219C198.666 120.219 205.261 120.187 207.476 119.213C207.542 119.185 207.24 122.887 207.309 122.855C210.159 121.522 212.205 114.767 211.925 111.622L210.748 106.709C209.799 102.748 209.224 98.71 209.024 94.648L213.698 96.5711L215.833 95.3214C217.811 93.7502 218.642 91.1337 217.937 88.7018H217.938Z" fill="white"/>
<path d="M207.309 123.069C207.266 123.069 207.224 123.057 207.187 123.032C207.1 122.972 207.098 122.295 207.181 120.999C207.214 120.482 207.253 119.873 207.268 119.525C204.913 120.36 199.275 120.433 193.206 120.433C190.758 120.433 188.013 121.184 185.591 121.847C182.964 122.566 180.695 123.186 179.408 122.696C176.995 121.778 176.406 115.241 176.698 112.77L180.616 90.1083L177.699 88.4306C177.194 88.1395 176.972 87.5099 177.185 86.965C178.312 84.0898 182.334 74.6276 186.819 73.5519C187.029 73.4634 187.211 73.3959 187.387 73.3398C192.606 71.6706 197.813 71.488 202.863 72.7996C202.867 72.7996 202.872 72.7996 202.875 72.8005C203.227 72.8471 206.316 73.2599 206.62 73.3331C211.173 74.4259 214.332 77.3096 216.01 81.9024C216.591 83.4916 217.309 85.759 218.144 88.6408C218.876 91.1678 218.022 93.8555 215.968 95.4876C215.961 95.4942 215.952 95.5 215.944 95.5047L213.808 96.7544C213.751 96.7877 213.681 96.7925 213.62 96.7677L209.258 94.9731C209.472 98.9086 210.042 102.838 210.958 106.657L212.135 111.57C212.137 111.581 212.139 111.591 212.14 111.602C212.406 114.596 210.426 121.632 207.402 123.048C207.373 123.061 207.342 123.068 207.312 123.068L207.309 123.069ZM207.477 118.999C207.521 118.999 207.564 119.013 207.601 119.038C207.685 119.098 207.687 119.761 207.606 121.027C207.573 121.539 207.535 122.136 207.519 122.497C210.076 120.913 211.983 114.761 211.714 111.656L210.541 106.758C209.594 102.803 209.011 98.7317 208.812 94.6573C208.808 94.5841 208.842 94.5146 208.901 94.4718C208.961 94.43 209.038 94.4205 209.105 94.4481L213.681 96.3312L215.713 95.1423C217.621 93.6178 218.414 91.1145 217.732 88.7596C216.911 85.9273 216.177 83.6067 215.607 82.0488C213.982 77.5987 210.923 74.8054 206.519 73.7488C206.307 73.6974 204.227 73.4121 202.856 73.2295C202.836 73.2304 202.814 73.2295 202.793 73.2228C197.81 71.9217 192.671 72.0977 187.515 73.7469C187.343 73.802 187.165 73.8695 186.953 73.958C186.933 73.9665 186.912 73.9723 186.891 73.9732C182.617 75.0308 178.685 84.3 177.58 87.1209C177.442 87.4747 177.58 87.8685 177.91 88.0578L180.956 89.8106C181.033 89.8553 181.075 89.9447 181.06 90.0331L177.118 112.831C176.825 115.319 177.441 121.489 179.558 122.295C180.716 122.736 182.923 122.132 185.478 121.432C187.926 120.763 190.7 120.003 193.205 120.003C197.96 120.003 205.146 120.003 207.391 119.014C207.419 119.002 207.448 118.996 207.477 118.996V118.999Z" fill="#003080"/>
<path d="M191.944 167.596L195.318 177.709C195.318 177.709 191.642 177.394 191.291 177.462C190.94 177.532 186.641 168.24 186.641 168.24L191.944 167.596Z" fill="white"/>
<path d="M195.32 177.923C195.314 177.923 195.307 177.923 195.302 177.923C193.541 177.771 191.551 177.632 191.333 177.673C191.114 177.716 190.954 177.749 188.644 172.971C187.537 170.682 186.46 168.354 186.449 168.331C186.421 168.268 186.424 168.197 186.456 168.137C186.489 168.077 186.549 168.037 186.617 168.028L191.919 167.385C192.021 167.371 192.115 167.433 192.148 167.529L195.522 177.642C195.545 177.71 195.532 177.786 195.488 177.843C195.448 177.895 195.386 177.924 195.321 177.924L195.32 177.923ZM191.488 177.24C192.202 177.24 194.146 177.395 195.015 177.467L191.798 167.829L186.96 168.416C188.48 171.694 190.874 176.682 191.351 177.242C191.389 177.24 191.436 177.239 191.488 177.239V177.24Z" fill="#003080"/>
<path d="M194.547 175.486C194.547 175.486 189.473 173.396 188.535 176.018C187.34 179.354 185.475 184.443 185.475 184.443C185.159 185.328 185.767 186.274 186.7 186.349C188.555 186.499 191.321 186.62 192.61 186.166C194.645 185.449 198.02 178.982 198.02 178.982L196.979 173.479C196.979 173.479 195.138 173.218 194.548 175.486H194.547Z" fill="white"/>
<path d="M189.692 186.7C188.682 186.7 187.612 186.638 186.682 186.563C186.17 186.521 185.716 186.249 185.438 185.816C185.16 185.384 185.1 184.857 185.273 184.372C185.292 184.319 187.153 179.244 188.332 175.947C188.528 175.398 188.903 174.998 189.445 174.755C191.034 174.046 193.632 174.913 194.407 175.202C195.102 173.025 196.988 173.265 197.007 173.268C197.097 173.28 197.17 173.35 197.187 173.44L198.227 178.943C198.236 178.991 198.229 179.04 198.207 179.082C198.067 179.349 194.768 185.633 192.679 186.369C191.98 186.615 190.877 186.7 189.691 186.7H189.692ZM190.933 174.91C190.455 174.91 189.999 174.976 189.618 175.146C189.181 175.342 188.892 175.65 188.735 176.091C187.554 179.389 185.693 184.466 185.674 184.517C185.547 184.874 185.591 185.263 185.797 185.583C186.002 185.904 186.338 186.106 186.717 186.136C189.516 186.362 191.583 186.301 192.538 185.965C194.365 185.321 197.435 179.627 197.796 178.949L196.8 173.684H196.794C196.368 173.684 195.195 173.843 194.754 175.54C194.739 175.6 194.698 175.649 194.643 175.677C194.589 175.705 194.524 175.707 194.467 175.684C194.443 175.673 192.562 174.91 190.934 174.91H190.933Z" fill="#003080"/>
<path d="M191.987 184.361H186.776C186.658 184.361 186.562 184.265 186.562 184.147C186.562 184.029 186.658 183.933 186.776 183.933H191.987C192.105 183.933 192.2 184.029 192.2 184.147C192.2 184.265 192.105 184.361 191.987 184.361Z" fill="#003080"/>
<path d="M201.508 170.081L200.362 180.253L195.75 178.982L196.105 169.816L201.508 170.081Z" fill="white"/>
<path d="M200.361 180.467C200.342 180.467 200.323 180.464 200.304 180.459L195.692 179.189C195.596 179.162 195.532 179.074 195.535 178.974L195.89 169.808C195.892 169.751 195.918 169.697 195.96 169.659C196.002 169.62 196.057 169.6 196.114 169.603L201.518 169.866C201.577 169.869 201.631 169.897 201.669 169.941C201.707 169.986 201.725 170.045 201.719 170.104L200.572 180.276C200.565 180.338 200.531 180.394 200.479 180.429C200.443 180.454 200.401 180.466 200.36 180.466L200.361 180.467ZM195.968 178.821L200.177 179.98L201.27 170.283L196.308 170.04L195.968 178.82V178.821Z" fill="#003080"/>
<path d="M200.796 187.747H193.498C192.509 187.747 191.752 186.868 191.897 185.885C192.141 184.229 192.935 181.484 195.313 177.708C195.573 177.296 196.026 177.045 196.512 177.045H198.731C199.114 177.045 199.435 177.335 199.475 177.717L199.642 179.326L200.315 178.632C200.579 178.359 201.037 178.464 201.155 178.825C201.581 180.125 202.356 182.911 202.414 186.091C202.431 187 201.7 187.745 200.795 187.745L200.796 187.747Z" fill="white"/>
<path d="M200.797 187.961H193.499C192.966 187.961 192.459 187.729 192.112 187.323C191.764 186.918 191.61 186.383 191.688 185.854C191.933 184.193 192.729 181.412 195.135 177.594C195.435 177.116 195.952 176.831 196.514 176.831H198.733C199.227 176.831 199.638 177.203 199.689 177.695L199.809 178.849L200.163 178.483C200.34 178.3 200.594 178.225 200.841 178.283C201.087 178.34 201.282 178.518 201.36 178.759C201.809 180.132 202.571 182.909 202.629 186.088C202.638 186.585 202.452 187.055 202.104 187.41C201.757 187.766 201.292 187.961 200.797 187.961ZM196.514 177.26C196.104 177.26 195.714 177.476 195.495 177.823C193.129 181.579 192.348 184.297 192.109 185.917C192.049 186.323 192.168 186.734 192.435 187.044C192.702 187.355 193.09 187.533 193.499 187.533H200.797C201.177 187.533 201.533 187.383 201.8 187.11C202.067 186.838 202.21 186.478 202.203 186.096C202.146 182.975 201.397 180.243 200.955 178.893C200.923 178.794 200.846 178.725 200.745 178.701C200.641 178.678 200.542 178.706 200.468 178.783L199.796 179.476C199.738 179.536 199.651 179.557 199.573 179.529C199.495 179.502 199.44 179.432 199.431 179.349L199.264 177.741C199.235 177.467 199.006 177.26 198.733 177.26H196.513H196.514Z" fill="#003080"/>
<path d="M200.881 186.209H193.49C193.373 186.209 193.277 186.113 193.277 185.995C193.277 185.877 193.373 185.781 193.49 185.781H200.881C200.998 185.781 201.094 185.877 201.094 185.995C201.094 186.113 200.998 186.209 200.881 186.209Z" fill="#003080"/>
<path d="M184.188 108.991C184.379 108.522 184.766 108.162 185.247 108.011C187.916 107.17 197.22 104.954 206.797 111.124C207.249 111.415 207.538 111.903 207.576 112.441C207.923 117.33 209.213 142.884 201.165 173.142L195.743 172.754L194.638 121.019C194.638 121.019 186.607 139.985 193.137 170.169L187.498 171.215C187.498 171.215 179.246 160.317 177.768 143.662C176.461 128.929 182.725 112.571 184.188 108.992V108.991Z" fill="white"/>
<path d="M201.166 173.355C201.16 173.355 201.155 173.355 201.151 173.355L195.729 172.967C195.619 172.959 195.534 172.869 195.531 172.757L194.45 122.132C193.808 123.961 192.507 128.172 191.649 134.323C190.566 142.071 189.982 154.571 193.347 170.123C193.36 170.179 193.348 170.239 193.316 170.287C193.284 170.335 193.234 170.368 193.177 170.379L187.537 171.425C187.459 171.438 187.377 171.408 187.329 171.344C187.247 171.235 179.023 160.205 177.556 143.68C176.236 128.8 182.684 112.104 183.991 108.909C184.208 108.378 184.643 107.977 185.184 107.806C187.839 106.969 197.253 104.721 206.913 110.943C207.419 111.269 207.747 111.824 207.789 112.425C208.131 117.257 209.43 142.899 201.371 173.196C201.347 173.29 201.262 173.355 201.166 173.355ZM195.953 172.553L201.005 172.914C208.996 142.759 207.704 117.267 207.364 112.455C207.331 111.987 207.076 111.557 206.683 111.303C197.179 105.182 187.923 107.392 185.312 108.215C184.892 108.347 184.555 108.659 184.386 109.072C183.087 112.252 176.67 128.861 177.981 143.643C179.361 159.187 186.751 169.818 187.591 170.981L192.883 169.999C189.556 154.477 190.144 141.996 191.228 134.246C192.41 125.802 194.422 120.984 194.442 120.936C194.481 120.843 194.579 120.79 194.679 120.809C194.777 120.829 194.849 120.914 194.851 121.015L195.952 172.554L195.953 172.553Z" fill="#003080"/>
<path d="M199.784 149.095C199.67 149.095 199.576 149.005 199.57 148.891C199.566 148.773 199.657 148.673 199.774 148.667C204.405 148.466 204.946 141.981 204.951 141.915C204.959 141.797 205.062 141.707 205.179 141.718C205.296 141.726 205.384 141.829 205.376 141.947C205.371 142.016 204.802 148.877 199.792 149.094C199.789 149.094 199.785 149.094 199.783 149.094L199.784 149.095Z" fill="#003080"/>
<path d="M194.165 125.975H194.158C194.041 125.972 193.948 125.873 193.951 125.755L194.095 120.84C194.122 119.937 193.699 119.088 192.964 118.569L190.852 117.078C190.756 117.01 190.733 116.876 190.8 116.779C190.868 116.682 191.001 116.66 191.098 116.727L193.209 118.218C194.062 118.82 194.553 119.806 194.523 120.852L194.378 125.767C194.374 125.883 194.279 125.975 194.165 125.975Z" fill="#003080"/>
<path d="M207.759 91.4946C207.759 91.4946 212.066 102.43 207.779 114.553C207.779 114.553 203.625 116.406 202.195 117.523C200.765 118.639 200.59 121.418 200.59 121.418C200.59 121.418 202.644 119.732 204.326 119.775C206.009 119.818 208.512 118.87 208.56 116.969C208.56 116.969 215.965 108.482 216.14 101.959C216.336 94.6683 215.841 89.6476 215.25 87.7416C215.146 87.4068 214.808 87.2071 214.466 87.2689C211.335 87.8367 208.323 88.8259 207.759 91.4955V91.4946Z" fill="white"/>
<path d="M200.592 121.631C200.559 121.631 200.526 121.623 200.495 121.607C200.419 121.568 200.374 121.488 200.379 121.403C200.387 121.286 200.577 118.514 202.066 117.352C203.404 116.308 206.997 114.669 207.61 114.393C211.771 102.519 207.605 91.6805 207.563 91.5721C207.547 91.5331 207.544 91.4903 207.552 91.4485C208.165 88.5496 211.549 87.5776 214.429 87.0554C214.879 86.9746 215.32 87.2399 215.455 87.6746C215.999 89.4303 216.562 94.2256 216.354 101.962C216.185 108.279 209.475 116.233 208.772 117.05C208.719 117.943 208.15 118.734 207.162 119.285C206.344 119.74 205.257 120.008 204.323 119.986C204.304 119.986 204.284 119.986 204.265 119.986C202.692 119.986 200.747 121.566 200.728 121.582C200.689 121.613 200.641 121.63 200.593 121.63L200.592 121.631ZM207.983 91.4779C208.322 92.391 212.08 103.036 207.981 114.623C207.961 114.679 207.92 114.723 207.866 114.747C207.825 114.765 203.72 116.604 202.327 117.691C201.338 118.463 200.98 120.123 200.859 120.946C201.544 120.457 202.98 119.558 204.264 119.558C204.287 119.558 204.31 119.558 204.333 119.558C205.191 119.584 206.198 119.331 206.954 118.911C207.576 118.564 208.323 117.945 208.348 116.96C208.348 116.91 208.367 116.862 208.401 116.824C208.474 116.74 215.757 108.32 215.927 101.949C216.134 94.2655 215.582 89.5254 215.047 87.8011C214.976 87.5719 214.742 87.432 214.504 87.4758C211.776 87.9704 208.578 88.8729 207.981 91.476L207.983 91.4779Z" fill="#003080"/>
<path d="M196.852 60.6663C196.649 60.7557 196.417 60.6454 196.359 60.4295C196.085 59.4042 195.09 57.7541 193.831 57.2909C192.218 56.6974 190.245 56.977 189.669 58.203C189.166 59.2729 189.435 59.991 188.044 61.2845C187.91 61.4081 187.983 61.643 188.113 61.7705L188.796 62.5123C188.941 62.655 189.027 63.0849 189.022 63.2903C189.005 63.9256 188.917 65.2705 189.112 65.4692C189.491 65.8582 191.609 65.9914 191.609 65.9914L192.57 72.0231C192.607 72.2523 192.448 72.4663 192.22 72.4949L190.13 72.9276C190.13 72.9276 191.458 75.3966 196.531 75.6857C199.773 75.8702 203.918 73.7531 203.918 73.7531C203.918 73.7531 196.269 72.2143 196.349 64.6865C196.351 64.521 196.441 64.3688 196.583 64.287C197.128 63.9732 198.609 63.0326 198.513 61.8789C198.412 60.6539 197.548 60.361 196.853 60.6672L196.852 60.6663Z" fill="white"/>
<path d="M196.948 75.9116C196.804 75.9116 196.662 75.9078 196.52 75.8992C191.387 75.6063 190 73.1344 189.943 73.0298C189.911 72.9699 189.909 72.8986 189.938 72.8377C189.966 72.7759 190.022 72.7321 190.088 72.7178L192.179 72.2842C192.247 72.2746 192.293 72.248 192.324 72.2062C192.356 72.1634 192.369 72.1101 192.361 72.0559L191.426 66.1925C190.841 66.1478 189.332 65.9975 188.961 65.619C188.765 65.4183 188.753 64.8401 188.8 63.6189C188.804 63.4952 188.808 63.3811 188.811 63.2841C188.817 63.0872 188.726 62.7401 188.649 62.6649L187.959 61.9155C187.838 61.7985 187.76 61.6178 187.762 61.4523C187.764 61.3249 187.813 61.2098 187.901 61.128C188.817 60.2768 188.97 59.7166 189.148 59.0689C189.23 58.7703 189.315 58.4612 189.478 58.1121C190.136 56.7159 192.289 56.4953 193.907 57.0897C195.271 57.5919 196.284 59.3124 196.568 60.3738C196.583 60.4318 196.623 60.4584 196.646 60.4689C196.668 60.4793 196.715 60.4946 196.769 60.4698C197.199 60.2806 197.655 60.2977 198.019 60.5155C198.305 60.6876 198.661 61.0605 198.728 61.8603C198.826 63.0558 197.493 64.0098 196.69 64.472C196.612 64.5167 196.564 64.5994 196.563 64.6879C196.486 71.9541 203.886 73.5272 203.961 73.5424C204.05 73.5605 204.118 73.6328 204.131 73.7231C204.143 73.8135 204.098 73.9019 204.016 73.9428C203.852 74.0265 200.126 75.9097 196.948 75.9097V75.9116ZM190.494 73.0716C190.987 73.6841 192.62 75.2487 196.544 75.4722C199.027 75.6129 202.097 74.3566 203.303 73.8087C201.497 73.2571 196.07 71.0677 196.137 64.6841C196.14 64.4444 196.271 64.2199 196.478 64.1011C197.054 63.7701 198.385 62.8922 198.303 61.8965C198.263 61.4067 198.089 61.0567 197.801 60.8845C197.556 60.738 197.243 60.7304 196.94 60.8636C196.787 60.9311 196.611 60.9283 196.462 60.856C196.311 60.7837 196.2 60.6486 196.157 60.486C195.904 59.5416 194.969 57.9371 193.761 57.493C192.313 56.9594 190.401 57.1553 189.865 58.2957C189.716 58.6114 189.637 58.9015 189.56 59.183C189.381 59.8345 189.196 60.5088 188.192 61.4428C188.18 61.4618 188.198 61.5531 188.265 61.6178L188.955 62.3672C189.162 62.5698 189.244 63.0815 189.238 63.2964C189.235 63.3944 189.231 63.5104 189.226 63.636C189.209 64.0906 189.169 65.1539 189.275 65.3308C189.488 65.5477 190.779 65.7255 191.624 65.7788C191.724 65.7854 191.805 65.8596 191.821 65.9585L192.782 71.9903C192.809 72.1596 192.768 72.3279 192.666 72.4649C192.564 72.6009 192.417 72.6874 192.249 72.7083L190.495 73.0726L190.494 73.0716Z" fill="#003080"/>
<path d="M183.044 174.293L185.3 177.264C185.678 177.892 185.52 178.677 184.955 178.98L184.304 179.329C183.776 179.612 183.087 179.363 182.748 178.766L180.355 175.66L183.044 174.293Z" fill="white"/>
<path d="M183.829 179.661C183.343 179.661 182.854 179.379 182.569 178.886L180.185 175.791C180.146 175.741 180.132 175.675 180.145 175.613C180.159 175.552 180.2 175.498 180.257 175.47L182.945 174.103C183.037 174.057 183.149 174.082 183.212 174.164L185.468 177.135C185.473 177.141 185.476 177.148 185.481 177.154C185.709 177.533 185.777 177.981 185.666 178.384C185.571 178.73 185.354 179.01 185.055 179.17L184.404 179.519C184.223 179.616 184.027 179.662 183.831 179.662L183.829 179.661ZM180.68 175.734L182.914 178.635C182.92 178.643 182.926 178.651 182.931 178.66C183.214 179.159 183.773 179.369 184.202 179.14L184.853 178.791C185.048 178.686 185.191 178.502 185.254 178.27C185.333 177.984 185.284 177.661 185.121 177.384L182.98 174.564L180.68 175.734H180.68Z" fill="#003080"/>
<path d="M188.755 178.897C189.133 179.204 189.242 179.737 189.023 180.172C188.256 181.698 186.52 185.13 185.959 186.054C185.23 187.252 183.815 188.289 182.727 188.331C181.638 188.372 181.674 185.305 181.855 183.987C182.124 182.029 181.569 179.466 181.929 178.887C182.139 178.551 183.009 178.508 183.698 178.532C184.233 178.55 184.711 178.201 184.868 177.687L185.12 176.866C185.183 176.658 185.424 176.564 185.61 176.675C186.187 177.019 187.383 177.776 188.756 178.896L188.755 178.897Z" fill="white"/>
<path d="M182.705 188.545C182.486 188.545 182.286 188.452 182.125 188.273C181.364 187.429 181.526 184.809 181.643 183.958C181.775 183.003 181.706 181.908 181.645 180.941C181.572 179.78 181.541 179.107 181.747 178.775C181.826 178.648 182.066 178.261 183.705 178.319C184.145 178.331 184.535 178.048 184.664 177.625L184.916 176.804C184.966 176.641 185.085 176.513 185.242 176.452C185.4 176.391 185.574 176.406 185.719 176.492C186.312 176.846 187.512 177.608 188.89 178.73C189.341 179.098 189.477 179.745 189.214 180.269C188.48 181.729 186.712 185.227 186.141 186.166C185.356 187.456 183.86 188.501 182.735 188.544C182.725 188.544 182.715 188.544 182.706 188.544L182.705 188.545ZM183.384 178.741C182.329 178.741 182.139 178.955 182.109 179.002C181.965 179.233 182.019 180.088 182.07 180.915C182.132 181.901 182.202 183.019 182.065 184.017C181.887 185.31 181.919 187.408 182.441 187.986C182.525 188.079 182.611 188.126 182.717 188.117C183.697 188.079 185.069 187.104 185.776 185.943C186.338 185.018 188.1 181.533 188.832 180.077C189.005 179.731 188.916 179.305 188.62 179.064C187.264 177.959 186.083 177.209 185.5 176.861C185.456 176.835 185.416 176.844 185.395 176.853C185.374 176.86 185.337 176.881 185.322 176.932L185.07 177.752C184.884 178.36 184.318 178.775 183.689 178.748C183.579 178.744 183.477 178.742 183.382 178.742L183.384 178.741Z" fill="#003080"/>
<path d="M182.897 181.914C182.789 181.914 182.697 181.832 182.685 181.723C182.672 181.605 182.757 181.499 182.874 181.487L184.445 181.317C184.563 181.306 184.668 181.39 184.68 181.508C184.692 181.626 184.608 181.731 184.491 181.743L182.92 181.913C182.912 181.913 182.904 181.914 182.897 181.914Z" fill="#003080"/>
<path d="M166.974 181.152L167.183 183.583C167.201 184.267 166.686 184.829 166.057 184.81L165.331 184.788C164.742 184.771 164.274 184.248 164.274 183.608L164.086 180.526L166.975 181.152H166.974Z" fill="white"/>
<path d="M166.087 185.025C166.075 185.025 166.063 185.025 166.05 185.025L165.324 185.003C164.616 184.982 164.06 184.37 164.06 183.608L163.871 180.539C163.868 180.472 163.895 180.407 163.945 180.363C163.995 180.319 164.065 180.302 164.129 180.316L167.018 180.942C167.11 180.962 167.177 181.039 167.186 181.133L167.395 183.564C167.406 183.98 167.255 184.37 166.979 184.647C166.735 184.891 166.42 185.024 166.087 185.024V185.025ZM164.315 180.796L164.486 183.596C164.486 184.137 164.86 184.561 165.336 184.575L166.063 184.597C166.29 184.608 166.509 184.514 166.678 184.344C166.871 184.151 166.977 183.876 166.97 183.59L166.775 181.329L164.315 180.796Z" fill="#003080"/>
<path d="M167.292 183.303C167.456 183.109 167.753 183.109 167.919 183.3C168.249 183.678 168.728 184.326 168.887 185.034C169.137 186.151 169.559 188.498 168.792 188.755C168.222 188.945 162.198 188.747 159.217 188.637C158.277 188.603 157.783 187.483 158.407 186.778C158.88 186.242 159.792 185.685 160.862 185.217C162.466 184.514 163.228 183.894 163.591 183.474C163.838 183.187 164.251 183.109 164.573 183.308L165.54 183.905C166.009 184.194 166.618 184.098 166.975 183.676L167.292 183.303Z" fill="white"/>
<path d="M166.964 189.047C165.359 189.047 162.768 188.982 159.21 188.851C158.686 188.832 158.234 188.518 158.026 188.032C157.824 187.556 157.909 187.021 158.249 186.635C158.721 186.101 159.62 185.527 160.778 185.02C162.371 184.323 163.1 183.717 163.43 183.333C163.75 182.962 164.278 182.875 164.685 183.126L165.652 183.722C166.034 183.958 166.523 183.88 166.814 183.538L167.13 183.165C167.248 183.025 167.422 182.944 167.603 182.943C167.783 182.951 167.959 183.021 168.081 183.159C168.453 183.587 168.931 184.251 169.096 184.987C169.633 187.39 169.554 188.726 168.859 188.958C168.68 189.018 168.046 189.047 166.963 189.047H166.964ZM164.183 183.411C164.025 183.411 163.867 183.481 163.753 183.613C163.393 184.031 162.614 184.683 160.949 185.413C159.845 185.896 159 186.431 158.568 186.92C158.335 187.183 158.279 187.537 158.418 187.864C158.56 188.196 158.869 188.41 159.225 188.423C167.488 188.727 168.585 188.598 168.725 188.552C169.064 188.439 169.182 187.321 168.681 185.081C168.528 184.398 168.039 183.76 167.761 183.441C167.722 183.396 167.668 183.371 167.609 183.371H167.608C167.548 183.371 167.494 183.397 167.456 183.443L167.139 183.815C166.71 184.319 165.993 184.434 165.43 184.087L164.463 183.491C164.377 183.438 164.281 183.412 164.184 183.412L164.183 183.411Z" fill="#003080"/>
<path d="M164.105 186.536C164.063 186.536 164.02 186.524 163.983 186.498L162.518 185.48C162.421 185.412 162.396 185.279 162.464 185.182C162.531 185.085 162.664 185.06 162.76 185.128L164.226 186.147C164.322 186.214 164.347 186.347 164.28 186.444C164.238 186.504 164.172 186.536 164.105 186.536Z" fill="#003080"/>
<path d="M160.049 153.084C160.049 153.084 160.676 159.093 161.601 163.782C162.339 167.525 161.871 172.412 162.995 177.876C163.334 179.524 163.873 182.037 163.874 182.039L167.288 182.138C167.529 181.705 168.923 173.927 167.52 167.371C166.69 163.498 168.996 158.093 168.424 154.573C167.971 151.788 166.737 143.693 166.737 143.693L160.66 143.73C160.66 143.73 159.974 148.274 160.049 153.086V153.084Z" fill="#C383D9"/>
<path d="M165.811 144.182C166.901 139.209 173.466 140.695 175.206 149.494C175.888 152.942 177.227 158.708 177.135 161.245C177.1 162.202 177.451 163.134 178.081 163.852C182.538 168.933 182.325 169.514 184.014 174.77C184.04 174.853 182.679 177.05 181.72 177.359C177.861 174.402 174.139 167.735 172.086 165.382C170.031 163.027 165.971 148.619 165.971 148.619C165.971 148.619 165.143 147.228 165.812 144.18L165.811 144.182Z" fill="#C383D9"/>
<path d="M168.478 156.995C168.389 156.995 168.305 156.938 168.275 156.849C168.104 156.332 167.937 155.818 167.775 155.313L167.746 155.218C167.601 154.746 167.216 153.494 166.106 153.013C165.998 152.967 165.947 152.84 165.994 152.732C166.04 152.623 166.165 152.574 166.274 152.619C167.566 153.178 167.993 154.568 168.154 155.091L168.182 155.182C168.344 155.686 168.511 156.199 168.681 156.714C168.718 156.826 168.657 156.947 168.546 156.985C168.523 156.993 168.501 156.995 168.479 156.995H168.478Z" fill="white"/>
<path d="M173.877 128.198C174.657 128.126 175.946 128.545 178.258 126.089C182.091 129.482 187.61 127.934 189.805 125.503C192.488 122.533 192.4 116.805 188.828 113.704C191.765 113.814 192.604 112.716 192.857 112.28C194.35 109.71 191 103.386 187.614 103.221C186.364 103.161 184.635 104.637 181.229 107.591C177.711 110.642 177.539 111.257 176.513 111.321C173.497 111.51 172.819 106.395 168.876 105.582C165.684 104.924 162.388 107.342 162.213 111.228C162.142 112.79 164.079 112.554 165.054 115.704C166.307 119.751 169.101 128.642 173.878 128.197L173.877 128.198Z" fill="#003080"/>
<path d="M158.237 121.906C155.091 122.475 153.647 122.465 151.046 121.248C151.046 121.248 148.148 119.637 148.422 118.813L149.264 111.473C149.402 110.36 149.312 109.23 148.999 108.153L147.986 105.289C147.814 104.803 147.096 104.937 147.11 105.453L147.151 106.939C147.151 106.939 146.665 106.945 146.46 106.868C146.013 106.698 145.675 106.32 145.515 105.866C145.331 105.342 145.028 104.504 144.902 104.274C144.713 103.933 144.496 103.438 144.106 103.221L144.094 103.214C143.684 102.993 143.198 103.336 143.269 103.798L143.511 105.399C143.687 106.561 144.228 107.637 145.054 108.468L146.693 110.116C146.997 110.422 147.088 110.88 146.925 111.279L144.141 118.085C143.513 119.656 143.354 121.137 143.762 122.108C145.887 127.166 158.998 130.349 158.998 130.349L158.237 121.906Z" fill="white"/>
<path d="M159.001 130.564C158.984 130.564 158.968 130.562 158.951 130.558C158.411 130.427 145.709 127.292 143.568 122.192C143.146 121.187 143.284 119.661 143.945 118.006L146.731 111.198C146.862 110.877 146.79 110.513 146.545 110.268L144.906 108.619C144.041 107.749 143.487 106.647 143.302 105.431L143.06 103.831C143.015 103.536 143.138 103.247 143.381 103.075C143.623 102.903 143.937 102.884 144.197 103.026C144.602 103.25 144.83 103.678 145.012 104.023C145.04 104.074 145.065 104.124 145.091 104.17C145.221 104.405 145.504 105.183 145.72 105.795C145.864 106.207 146.164 106.525 146.539 106.667C146.615 106.695 146.778 106.712 146.934 106.72L146.899 105.459C146.89 105.123 147.112 104.846 147.441 104.785C147.77 104.723 148.077 104.901 148.189 105.217L149.202 108.082C149.529 109.205 149.621 110.35 149.479 111.499L148.636 118.838C148.634 118.853 148.631 118.867 148.627 118.881C148.496 119.273 149.827 120.325 151.152 121.061C153.688 122.247 155.07 122.263 158.202 121.696C158.26 121.685 158.321 121.7 158.368 121.737C158.416 121.773 158.446 121.828 158.452 121.888L159.213 130.331C159.219 130.399 159.192 130.467 159.14 130.512C159.101 130.546 159.051 130.565 159.001 130.565V130.564ZM143.826 103.36C143.756 103.36 143.688 103.382 143.627 103.425C143.516 103.503 143.461 103.631 143.482 103.766L143.724 105.367C143.895 106.492 144.407 107.511 145.208 108.317L146.847 109.965C147.213 110.332 147.322 110.88 147.125 111.36L144.34 118.166C143.721 119.717 143.582 121.123 143.96 122.025C145.846 126.515 156.828 129.562 158.76 130.067L158.047 122.158C155.022 122.692 153.528 122.645 150.958 121.442C150.234 121.04 147.955 119.69 148.214 118.769L149.055 111.449C149.189 110.356 149.103 109.269 148.796 108.214L147.787 105.361C147.722 105.177 147.552 105.199 147.519 105.206C147.486 105.213 147.319 105.253 147.325 105.447L147.365 106.933C147.367 106.99 147.345 107.046 147.306 107.087C147.266 107.129 147.212 107.152 147.154 107.153C147.066 107.153 146.617 107.155 146.387 107.067C145.894 106.881 145.504 106.469 145.316 105.937C145.025 105.107 144.806 104.538 144.717 104.378C144.69 104.329 144.663 104.278 144.634 104.224C144.471 103.914 144.284 103.564 144.004 103.408C143.944 103.376 143.883 103.36 143.824 103.36H143.826Z" fill="#003080"/>
<path d="M155.416 121.704C155.232 121.8 155.139 122.011 155.189 122.212L156.704 128.32C157.19 130.104 157.476 131.936 157.558 133.783L158.071 145.291C158.071 145.291 164.033 149.601 175.717 146.526L176.665 135.651C176.862 133.387 177.367 131.159 178.165 129.032L179.643 125.092C179.726 124.871 179.651 124.622 179.46 124.483C178.625 123.878 176.283 122.282 173.854 121.532C169.734 120.258 159.3 119.671 155.415 121.704H155.416Z" fill="white"/>
<path d="M167.741 147.836C161.324 147.836 157.989 145.497 157.945 145.465C157.892 145.427 157.86 145.366 157.857 145.301L157.345 133.793C157.263 131.964 156.978 130.141 156.497 128.376L154.981 122.264C154.906 121.964 155.045 121.655 155.315 121.513C159.435 119.357 169.989 120.113 173.916 121.327C176.355 122.081 178.692 123.664 179.583 124.309C179.851 124.503 179.957 124.856 179.841 125.168L178.363 129.108C177.571 131.217 177.071 133.424 176.875 135.67L175.927 146.545C175.92 146.635 175.856 146.71 175.769 146.733C172.708 147.538 170.028 147.836 167.741 147.836ZM158.277 145.173C159.035 145.661 164.902 149.105 175.515 146.357L176.45 135.634C176.649 133.349 177.158 131.103 177.963 128.957L179.441 125.018C179.491 124.888 179.446 124.739 179.333 124.657C178.459 124.024 176.169 122.472 173.79 121.737C169.532 120.42 159.228 119.95 155.512 121.894C155.417 121.944 155.368 122.053 155.395 122.161L156.909 128.269C157.397 130.06 157.686 131.913 157.77 133.773L158.277 145.173Z" fill="#003080"/>
<path d="M180.137 126.829C179.92 126.426 179.669 126.068 179.395 125.746L178.162 129.033C177.666 130.355 177.285 131.717 177.019 133.101C176.811 134.507 176.145 135.5 174.584 135.362C172.614 135.188 169.714 134.778 168.297 132.346C167.674 131.276 166.556 130.167 165.923 130.731C165.527 131.084 166.223 131.686 166.481 132.145C166.639 132.427 166.445 132.52 166.126 132.474C163.924 132.163 162.514 130.108 161.915 131.059C161.728 131.356 161.808 132.244 162.15 132.85C163.219 134.747 165.786 135.507 167.352 135.96C170.274 136.805 174.191 141.218 178.579 140.733C181.906 140.365 182.092 130.466 180.139 126.827L180.137 126.829Z" fill="white"/>
<path d="M177.896 140.986C175.286 140.986 172.888 139.43 170.752 138.044C169.498 137.231 168.315 136.462 167.294 136.167C165.721 135.713 163.089 134.951 161.966 132.956C161.603 132.312 161.491 131.335 161.736 130.946C162.165 130.264 162.855 130.692 163.654 131.187C164.326 131.604 165.162 132.123 166.158 132.264C166.226 132.274 166.275 132.274 166.308 132.272C166.305 132.266 166.301 132.259 166.298 132.253C166.235 132.142 166.141 132.017 166.042 131.885C165.748 131.496 165.347 130.962 165.784 130.572C165.974 130.404 166.212 130.336 166.475 130.378C167.18 130.491 167.993 131.394 168.484 132.238C169.766 134.44 172.298 134.946 174.606 135.15C175.867 135.261 176.588 134.581 176.811 133.07C177.082 131.66 177.47 130.28 177.965 128.957L179.199 125.67C179.226 125.599 179.287 125.548 179.362 125.535C179.436 125.523 179.512 125.549 179.561 125.606C179.859 125.956 180.118 126.333 180.329 126.728C181.939 129.728 182.044 136.461 180.525 139.368C180.021 140.331 179.375 140.863 178.604 140.948C178.368 140.974 178.132 140.987 177.898 140.987L177.896 140.986ZM162.341 131.027C162.233 131.027 162.158 131.076 162.096 131.175C161.965 131.383 162.022 132.187 162.337 132.746C163.374 134.588 165.902 135.319 167.412 135.756C168.494 136.069 169.703 136.854 170.984 137.685C173.252 139.157 175.823 140.826 178.557 140.522C179.178 140.454 179.713 139.998 180.146 139.169C181.616 136.357 181.512 129.838 179.953 126.931C179.813 126.67 179.649 126.415 179.466 126.172L178.364 129.108C177.876 130.408 177.495 131.765 177.231 133.142C176.972 134.888 176.076 135.712 174.568 135.577C172.151 135.363 169.495 134.824 168.116 132.455C167.603 131.573 166.884 130.877 166.407 130.801C166.269 130.78 166.161 130.808 166.067 130.893C165.945 131 166.071 131.215 166.381 131.626C166.485 131.764 166.592 131.906 166.668 132.041C166.799 132.275 166.753 132.431 166.692 132.522C166.588 132.673 166.39 132.729 166.098 132.688C165.015 132.535 164.136 131.99 163.43 131.553C162.86 131.2 162.542 131.028 162.342 131.028L162.341 131.027Z" fill="#003080"/>
<path d="M164.526 115.306L164.936 120.831L163.123 121.303C162.501 121.465 162.427 122.327 163.016 122.587C164.666 123.315 167.515 124.058 170.912 122.801C171.498 122.584 171.57 121.781 171.029 121.468L169.704 120.7L168.342 114.247L164.526 115.305V115.306Z" fill="white"/>
<path d="M167.211 123.697C165.478 123.697 164.014 123.261 162.933 122.783C162.582 122.628 162.374 122.279 162.405 121.894C162.437 121.506 162.698 121.193 163.072 121.095L164.712 120.668L164.315 115.32C164.308 115.218 164.373 115.125 164.472 115.098L168.288 114.039C168.344 114.023 168.405 114.032 168.455 114.063C168.505 114.093 168.54 114.144 168.553 114.202L169.895 120.562L171.138 121.281C171.459 121.468 171.639 121.814 171.607 122.185C171.575 122.559 171.338 122.872 170.987 123.001C169.632 123.502 168.361 123.695 167.211 123.695V123.697ZM164.754 115.466L165.15 120.816C165.158 120.92 165.091 121.013 164.991 121.04L163.179 121.512C162.941 121.573 162.843 121.768 162.83 121.93C162.817 122.09 162.883 122.294 163.103 122.392C164.831 123.155 167.576 123.809 170.839 122.602C171.036 122.529 171.164 122.36 171.182 122.151C171.199 121.944 171.104 121.759 170.924 121.655L169.599 120.888C169.547 120.857 169.51 120.806 169.497 120.747L168.182 114.516L164.753 115.468L164.754 115.466Z" fill="#003080"/>
<path d="M169.53 115.05C169.53 115.05 171.217 114.968 171.406 113.603C171.694 111.524 169.994 111.911 169.994 111.911C169.994 111.911 170.203 110.103 167.839 110.25C166.359 110.341 165.107 110.464 164.305 110.552C163.733 110.616 163.268 111.048 163.163 111.616C162.955 112.735 162.682 114.635 162.857 116.174C163.017 117.583 163.554 118.689 164.862 118.614C168.445 118.407 169.53 115.05 169.53 115.05Z" fill="white"/>
<path d="M164.738 118.832C163.888 118.832 162.887 118.349 162.642 116.198C162.461 114.603 162.758 112.618 162.951 111.577C163.074 110.911 163.609 110.414 164.28 110.34C165.078 110.251 166.34 110.127 167.824 110.036C168.697 109.982 169.348 110.177 169.76 110.613C170.096 110.97 170.185 111.401 170.205 111.672C170.476 111.66 170.903 111.698 171.229 111.998C171.589 112.331 171.719 112.882 171.615 113.634C171.458 114.769 170.351 115.177 169.68 115.253C169.421 115.901 168.137 118.641 164.873 118.829C164.829 118.832 164.784 118.833 164.739 118.833L164.738 118.832ZM168.102 110.455C168.021 110.455 167.937 110.457 167.85 110.462C166.374 110.554 165.119 110.677 164.327 110.765C163.85 110.817 163.457 111.183 163.369 111.655C163.181 112.673 162.89 114.61 163.065 116.15C163.244 117.723 163.828 118.456 164.848 118.4C168.246 118.203 169.314 115.015 169.324 114.983C169.352 114.898 169.429 114.839 169.517 114.835C169.578 114.832 171.031 114.743 171.193 113.573C171.276 112.97 171.193 112.546 170.942 112.314C170.604 112 170.044 112.119 170.038 112.12C169.971 112.135 169.9 112.116 169.849 112.07C169.798 112.023 169.772 111.955 169.78 111.886C169.78 111.881 169.836 111.312 169.447 110.903C169.163 110.605 168.712 110.455 168.102 110.455Z" fill="#003080"/>
<path d="M228.683 59.3596C239.073 59.3596 247.495 50.8999 247.495 40.4644C247.495 30.029 239.073 21.5693 228.683 21.5693C218.294 21.5693 209.871 30.029 209.871 40.4644C209.871 50.8999 218.294 59.3596 228.683 59.3596Z" fill="white"/>
<path d="M228.682 59.5746C218.192 59.5746 209.656 51.0025 209.656 40.4645C209.656 29.9266 218.192 21.3545 228.682 21.3545C239.173 21.3545 247.708 29.9266 247.708 40.4645C247.708 51.0025 239.174 59.5746 228.682 59.5746ZM228.682 21.7834C218.426 21.7834 210.082 30.1634 210.082 40.4645C210.082 50.7657 218.426 59.1457 228.682 59.1457C238.938 59.1457 247.281 50.7657 247.281 40.4645C247.281 30.1634 238.938 21.7834 228.682 21.7834Z" fill="#003080"/>
<path d="M231.369 55.8452C229.018 55.5561 227.185 54.5888 225.673 52.8579C224.119 51.0784 222.67 48.8557 220.648 46.8271C217.519 43.6876 213.422 41.6104 214.122 40.8191C214.523 39.772 217.025 41.4392 221.761 44.3181C222.079 44.5112 222.489 43.5354 222.288 43.2168C217.384 35.4056 215.86 32.8747 216.693 32.3412C217.696 31.508 220.78 35.7546 224.356 40.6146C224.548 40.8752 224.968 40.6184 224.805 40.3407C220.808 33.5224 217.865 29.0191 219.283 28.1859C220.58 27.1759 222.902 32.3145 227.54 38.4157C227.77 38.7172 228.267 38.4633 228.139 38.1104C225.329 30.3943 224.036 27.231 225.218 26.8211C226.722 26.2001 228.55 31.9645 232.988 40.6032C233.233 41.0816 233.988 40.9256 234.019 40.3902C234.262 36.2225 234.572 34.4183 236.327 33.3056C236.638 33.1077 237.675 32.9689 237.73 33.3455C238.148 36.1997 236.731 36.9149 238.17 42.2999C238.334 42.9134 238.553 43.9272 238.659 44.553C238.812 45.4575 239.056 46.5322 239.215 47.1923C239.337 47.6992 239.393 48.268 239.384 48.8567C239.351 51.2115 238.007 53.3914 235.918 54.6649L235.562 54.8818C234.821 55.5713 232.788 56.0202 231.368 55.8452H231.369Z" fill="#003080"/>
<path d="M229.333 55.4345C228.202 54.162 228.068 51.6996 227.13 49.7043C226.215 47.7574 224.655 46.1016 225.126 45.8809C225.501 45.4939 226.382 46.6798 228.101 48.8046C228.215 48.9472 228.582 48.5925 228.545 48.4165C227.624 44.0948 227.356 42.7062 227.843 42.6225C228.463 42.438 229.16 44.8642 229.98 47.648C230.024 47.7974 230.267 47.7612 230.241 47.6091C229.571 43.8884 228.985 41.3757 229.801 41.2673C230.591 41.058 230.771 43.7382 231.871 47.26C231.925 47.4341 232.205 47.4122 232.207 47.2343C232.256 43.3339 232.209 41.7095 232.839 41.7437C233.665 41.7437 233.49 44.654 234.061 49.3191C234.089 49.5436 234.427 49.6044 234.524 49.4018C235.41 47.5425 235.875 46.7826 236.918 46.6085C237.1 46.5781 237.613 46.7055 237.573 46.8805C237.262 48.2101 236.467 48.2682 236.188 50.895C236.156 51.1946 236.079 51.6797 236.018 51.9736C235.93 52.3987 235.853 52.9151 235.81 53.2347C235.778 53.4801 235.688 53.7359 235.562 53.9879C235.094 54.9276 234.209 55.6324 233.135 55.9833L232.521 56.184C231.524 56.5406 230.12 56.1498 229.335 55.4345H229.333Z" fill="white"/>
</svg>
